{"glyphs":{"0":{"ha":833,"x_min":0,"x_max":0,"o":"m 58 282 b 54 485 54 326 54 371 b 58 686 54 599 54 642 b 417 983 78 856 231 983 b 775 686 603 983 756 856 b 779 485 779 642 779 599 b 775 282 779 371 779 326 b 417 -15 756 113 603 -15 b 58 282 231 -15 78 113 m 272 306 b 417 179 279 232 340 179 b 561 306 493 179 554 232 b 565 485 565 339 565 388 b 563 657 565 582 565 624 b 417 789 554 733 493 789 b 271 657 340 789 279 733 b 268 485 268 624 268 582 b 272 306 268 388 268 339 "},"1":{"ha":499,"x_min":0,"x_max":0,"o":"m 188 774 l 46 774 l 46 968 l 401 968 l 401 0 l 188 0 "},"2":{"ha":751,"x_min":0,"x_max":0,"o":"m 22 140 l 449 563 b 504 682 482 597 504 632 b 381 800 504 749 449 800 b 250 660 308 800 250 739 l 58 660 b 382 985 58 840 203 985 b 697 682 556 985 697 849 b 574 431 697 588 651 506 l 336 194 l 714 194 l 714 0 l 22 0 "},"3":{"ha":786,"x_min":0,"x_max":0,"o":"m 169 282 b 361 181 207 215 274 181 b 533 321 457 181 533 235 b 347 457 533 397 464 457 b 243 444 314 457 274 453 l 175 556 l 425 774 l 89 774 l 89 968 l 704 968 l 704 815 l 481 613 b 482 613 482 613 479 613 b 743 326 633 604 743 475 b 365 -14 743 136 599 -14 b 3 175 201 -14 68 61 "},"4":{"ha":847,"x_min":0,"x_max":0,"o":"m 60 328 l 372 968 l 592 968 l 297 369 l 550 369 l 550 551 l 760 551 l 760 0 l 550 0 l 550 181 l 60 181 "},"5":{"ha":778,"x_min":0,"x_max":0,"o":"m 189 285 b 357 181 218 222 282 181 b 522 331 446 181 522 243 b 363 479 522 424 451 479 b 242 438 321 479 271 467 l 85 479 l 182 968 l 665 968 l 665 774 l 336 774 l 308 640 b 393 653 333 649 363 653 b 735 328 589 653 735 501 b 357 -14 735 135 567 -14 b 17 182 206 -14 76 65 "},"6":{"ha":799,"x_min":0,"x_max":0,"o":"m 33 340 b 179 674 33 454 96 547 l 372 968 l 607 968 l 407 671 b 444 675 414 674 431 675 b 765 343 579 675 765 556 b 397 -7 765 149 601 -7 b 33 340 197 -7 33 149 m 246 340 b 397 188 246 254 314 188 b 551 340 482 188 551 258 b 397 492 551 421 482 492 b 246 340 311 492 246 424 "},"7":{"ha":760,"x_min":0,"x_max":0,"o":"m 497 774 l 36 774 l 36 968 l 722 968 l 722 799 l 328 0 l 108 0 "},"8":{"ha":804,"x_min":0,"x_max":0,"o":"m 43 318 b 179 557 43 425 100 511 b 107 708 136 592 107 643 b 401 985 107 860 240 985 b 696 708 563 985 696 860 b 624 557 696 643 668 593 b 763 318 704 513 763 425 b 401 -14 763 136 601 -14 b 43 318 203 -14 43 136 m 401 613 b 501 708 457 613 501 656 b 401 800 501 760 457 800 b 303 708 347 800 303 760 b 401 613 303 656 347 613 m 257 318 b 401 181 257 242 324 181 b 549 318 481 181 549 243 b 401 456 549 392 481 456 b 257 318 322 456 257 393 "},"9":{"ha":804,"x_min":0,"x_max":0,"o":"m 394 310 b 354 304 386 306 369 304 b 38 635 224 304 38 419 b 403 982 38 826 201 982 b 765 638 608 982 765 826 b 619 301 765 524 706 429 l 419 0 l 185 0 m 403 483 b 556 636 493 483 556 553 b 403 788 556 721 486 788 b 251 636 319 788 251 719 b 403 483 251 554 319 483 "}," ":{"ha":561,"x_min":0,"x_max":0,"o":""},"A":{"ha":1032,"x_min":0,"x_max":0,"o":"m 421 968 l 611 968 l 1011 0 l 783 0 l 718 163 l 314 163 l 249 0 l 21 0 m 657 333 l 517 685 l 375 333 "},"B":{"ha":872,"x_min":0,"x_max":0,"o":"m 94 968 l 479 968 b 756 721 633 968 756 864 b 632 526 756 628 710 554 b 826 286 760 504 826 407 b 532 0 826 122 701 0 l 94 0 m 444 582 b 549 685 506 582 549 625 b 446 785 549 742 506 785 l 304 785 l 304 582 m 489 185 b 614 303 561 185 614 236 b 488 417 614 368 563 417 l 304 417 l 304 185 "},"C":{"ha":989,"x_min":0,"x_max":0,"o":"m 49 483 b 569 983 49 772 282 983 b 961 803 726 983 865 914 l 815 679 b 569 789 754 747 667 789 b 263 483 397 789 263 658 b 569 179 263 308 397 179 b 817 290 667 179 756 221 l 963 167 b 569 -15 867 54 726 -15 b 49 483 282 -15 49 194 "},"D":{"ha":1025,"x_min":0,"x_max":0,"o":"m 94 968 l 461 968 b 975 482 799 968 975 763 b 463 0 975 197 800 0 l 94 0 m 449 194 b 760 482 693 194 760 322 b 447 774 760 646 693 774 l 308 774 l 308 194 "},"E":{"ha":829,"x_min":0,"x_max":0,"o":"m 94 968 l 756 968 l 756 774 l 308 774 l 308 592 l 726 592 l 726 401 l 308 401 l 308 194 l 765 194 l 765 0 l 94 0 "},"F":{"ha":786,"x_min":0,"x_max":0,"o":"m 94 968 l 732 968 l 732 774 l 308 774 l 308 575 l 694 575 l 694 385 l 308 385 l 308 0 l 94 0 "},"G":{"ha":1042,"x_min":0,"x_max":0,"o":"m 49 483 b 569 983 49 772 282 983 b 944 826 718 983 849 925 l 800 700 b 569 789 742 758 658 789 b 263 483 397 789 263 658 b 569 179 263 308 397 179 b 781 254 653 179 726 206 l 781 385 l 526 385 l 526 574 l 981 574 l 981 182 b 569 -15 892 64 742 -15 b 49 483 282 -15 49 194 "},"H":{"ha":1038,"x_min":0,"x_max":0,"o":"m 94 968 l 308 968 l 308 608 l 728 608 l 728 968 l 942 968 l 942 0 l 728 0 l 728 414 l 308 414 l 308 0 l 94 0 "},"I":{"ha":415,"x_min":0,"x_max":0,"o":"m 100 968 l 314 968 l 314 0 l 100 0 "},"J":{"ha":507,"x_min":0,"x_max":0,"o":"m 13 188 b 96 179 33 182 68 179 b 214 319 199 179 214 244 l 214 968 l 428 968 l 428 332 b 124 -15 428 158 406 -15 b 13 -6 88 -15 50 -12 "},"K":{"ha":954,"x_min":0,"x_max":0,"o":"m 94 968 l 308 968 l 308 536 l 682 968 l 936 968 l 565 539 l 947 0 l 696 0 l 419 388 l 308 264 l 308 0 l 94 0 "},"L":{"ha":722,"x_min":0,"x_max":0,"o":"m 94 968 l 308 968 l 308 194 l 686 194 l 686 0 l 94 0 "},"M":{"ha":1211,"x_min":0,"x_max":0,"o":"m 94 968 l 274 968 l 606 472 l 938 968 l 1117 968 l 1117 0 l 915 0 l 915 590 l 606 132 l 294 590 l 294 0 l 94 0 "},"N":{"ha":1050,"x_min":0,"x_max":0,"o":"m 94 968 l 285 968 l 749 367 l 749 968 l 956 968 l 956 0 l 781 0 l 301 618 l 301 0 l 94 0 "},"O":{"ha":1131,"x_min":0,"x_max":0,"o":"m 49 482 b 565 983 49 763 279 983 b 1082 482 853 983 1082 763 b 565 -19 1082 200 853 -19 b 49 482 279 -19 49 200 m 263 482 b 565 175 263 308 394 175 b 868 482 735 175 868 311 b 565 789 868 650 736 789 b 263 482 394 789 263 651 "},"P":{"ha":869,"x_min":0,"x_max":0,"o":"m 94 968 l 503 968 b 829 640 650 968 829 853 b 503 313 829 444 663 313 l 308 313 l 308 0 l 94 0 m 490 507 b 615 640 533 507 615 535 b 490 774 615 747 533 774 l 308 774 l 308 507 "},"Q":{"ha":1131,"x_min":0,"x_max":0,"o":"m 49 483 b 568 983 49 764 282 983 b 1082 483 853 983 1082 764 b 961 171 1082 361 1035 253 l 1050 67 l 907 -54 l 814 54 b 568 -12 746 10 660 -12 b 49 483 282 -12 49 204 m 263 483 b 568 182 263 313 397 182 b 678 204 610 182 646 189 l 557 343 l 700 465 l 824 322 b 868 483 851 364 868 422 b 568 789 868 651 735 789 b 263 483 397 789 263 653 "},"R":{"ha":911,"x_min":0,"x_max":0,"o":"m 94 968 l 500 968 b 829 649 681 968 829 829 b 657 374 829 522 760 418 l 893 0 l 651 0 l 450 322 l 447 322 l 307 322 l 307 0 l 94 0 m 476 511 b 615 646 560 511 615 564 b 494 774 615 721 563 774 l 307 774 l 307 511 "},"S":{"ha":806,"x_min":0,"x_max":0,"o":"m 167 306 b 410 178 213 229 297 178 b 554 274 517 178 554 228 b 311 429 554 358 446 379 b 76 710 172 479 76 554 b 399 983 76 883 226 983 b 721 825 561 983 663 907 l 578 717 b 404 792 543 761 488 792 b 288 713 332 792 288 758 b 521 568 288 632 364 629 b 768 281 696 501 768 419 b 408 -15 768 110 654 -15 b 11 199 200 -15 71 82 "},"T":{"ha":771,"x_min":0,"x_max":0,"o":"m 281 774 l 18 774 l 18 968 l 753 968 l 753 774 l 494 774 l 494 0 l 281 0 "},"U":{"ha":993,"x_min":0,"x_max":0,"o":"m 85 968 l 299 968 l 299 414 b 497 179 299 244 378 179 b 694 414 615 179 694 244 l 694 968 l 908 968 l 908 392 b 497 -15 908 118 722 -15 b 85 392 271 -15 85 118 "},"V":{"ha":1024,"x_min":0,"x_max":0,"o":"m 21 968 l 249 968 l 513 313 l 775 968 l 1003 968 l 607 0 l 418 0 "},"W":{"ha":1342,"x_min":0,"x_max":0,"o":"m 21 968 l 232 968 l 414 375 l 588 968 l 756 968 l 929 375 l 1111 968 l 1321 968 l 1028 0 l 847 0 l 671 578 l 494 0 l 314 0 "},"X":{"ha":943,"x_min":0,"x_max":0,"o":"m 340 497 l 38 968 l 276 968 l 472 660 l 667 968 l 904 968 l 603 496 l 924 0 l 688 0 l 471 336 l 254 0 l 21 0 "},"Y":{"ha":956,"x_min":0,"x_max":0,"o":"m 371 361 l 15 968 l 247 968 l 478 565 l 708 968 l 940 968 l 585 361 l 585 0 l 371 0 "},"Z":{"ha":903,"x_min":0,"x_max":0,"o":"m 50 146 l 564 774 l 99 774 l 99 968 l 844 968 l 844 807 l 343 194 l 854 194 l 854 0 l 50 0 "},"À":{"ha":1039,"x_min":0,"x_max":0,"o":"m 324 1236 l 547 1236 l 617 1035 l 463 1035 m 421 968 l 611 968 l 1011 0 l 783 0 l 718 163 l 314 163 l 249 0 l 21 0 m 657 333 l 517 685 l 375 333 "},"Á":{"ha":1039,"x_min":0,"x_max":0,"o":"m 492 1236 l 715 1236 l 576 1035 l 422 1035 m 421 968 l 611 968 l 1011 0 l 783 0 l 718 163 l 314 163 l 249 0 l 21 0 m 657 333 l 517 685 l 375 333 "},"Â":{"ha":1039,"x_min":0,"x_max":0,"o":"m 457 1224 l 576 1224 l 778 1056 l 590 1056 l 517 1129 l 442 1056 l 256 1056 m 421 968 l 611 968 l 1011 0 l 783 0 l 718 163 l 314 163 l 249 0 l 21 0 m 657 333 l 517 685 l 375 333 "},"Ã":{"ha":1039,"x_min":0,"x_max":0,"o":"m 235 1057 b 415 1238 250 1161 313 1238 b 622 1179 507 1238 556 1179 b 683 1238 654 1179 674 1194 l 799 1219 b 615 1031 783 1104 729 1031 b 407 1089 522 1031 474 1089 b 350 1040 379 1089 357 1078 l 235 1057 m 421 968 l 611 968 l 1011 0 l 783 0 l 718 163 l 314 163 l 249 0 l 21 0 m 657 333 l 517 685 l 375 333 "},"Ä":{"ha":1039,"x_min":0,"x_max":0,"o":"m 700 978 b 600 1075 644 978 600 1021 b 700 1171 600 1128 644 1171 b 800 1075 756 1171 800 1129 b 700 978 800 1021 756 978 m 336 978 b 235 1075 281 978 235 1021 b 336 1171 235 1128 281 1171 b 436 1075 390 1171 436 1129 b 336 978 436 1021 390 978 m 421 968 l 611 968 l 1011 0 l 783 0 l 718 163 l 314 163 l 249 0 l 21 0 m 657 333 l 517 685 l 375 333 "},"Ā":{"ha":1039,"x_min":0,"x_max":0,"o":"m 297 1183 l 738 1183 l 738 1050 l 297 1050 m 421 968 l 611 968 l 1011 0 l 783 0 l 718 163 l 314 163 l 249 0 l 21 0 m 657 333 l 517 685 l 375 333 "},"Ă":{"ha":1039,"x_min":0,"x_max":0,"o":"m 517 1038 b 271 1238 374 1038 286 1133 l 419 1238 b 517 1172 433 1199 465 1172 b 614 1238 568 1172 600 1199 l 761 1238 b 517 1038 746 1133 660 1038 m 421 968 l 611 968 l 1011 0 l 783 0 l 718 163 l 314 163 l 249 0 l 21 0 m 657 333 l 517 685 l 375 333 "},"Å":{"ha":1032,"x_min":0,"x_max":0,"o":"m 399 915 b 350 1028 368 944 350 983 b 521 1189 350 1115 426 1189 b 688 1028 613 1189 688 1115 b 635 911 688 982 667 940 l 1011 0 l 783 0 l 718 163 l 314 163 l 249 0 l 21 0 m 521 975 b 572 1028 550 975 572 999 b 521 1081 572 1057 550 1081 b 467 1028 492 1081 467 1057 b 521 975 467 999 492 975 m 657 333 l 517 685 l 375 333 "},"Ǻ":{"ha":1039,"x_min":0,"x_max":0,"o":"m 522 1461 l 746 1461 l 607 1260 l 453 1260 m 399 915 b 350 1028 368 944 350 983 b 521 1189 350 1115 426 1189 b 688 1028 613 1189 688 1115 b 635 911 688 982 667 940 l 1011 0 l 783 0 l 718 163 l 314 163 l 249 0 l 21 0 m 521 975 b 572 1028 550 975 572 999 b 521 1081 572 1057 550 1081 b 467 1028 492 1081 467 1057 b 521 975 467 999 492 975 m 657 333 l 517 685 l 375 333 "},"Ą":{"ha":1032,"x_min":0,"x_max":0,"o":"m 421 968 l 611 968 l 1011 0 b 913 -122 971 -22 913 -71 b 982 -171 913 -156 947 -171 b 1063 -154 1011 -171 1036 -165 l 1035 -283 b 956 -303 1010 -296 983 -303 b 778 -151 867 -303 778 -246 b 882 0 778 -85 826 -32 l 783 0 l 718 163 l 314 163 l 249 0 l 21 0 m 657 333 l 517 685 l 375 333 "},"Æ":{"ha":1303,"x_min":0,"x_max":0,"o":"m 729 968 l 1229 968 l 1229 774 l 886 774 l 886 589 l 1203 589 l 1203 404 l 886 404 l 886 194 l 1240 194 l 1240 0 l 678 0 l 678 163 l 325 163 l 194 0 l -50 0 m 678 333 l 678 607 l 460 333 "},"Ǽ":{"ha":1303,"x_min":0,"x_max":0,"o":"m 771 1236 l 994 1236 l 856 1035 l 701 1035 m 729 968 l 1229 968 l 1229 774 l 886 774 l 886 589 l 1203 589 l 1203 404 l 886 404 l 886 194 l 1240 194 l 1240 0 l 678 0 l 678 163 l 325 163 l 194 0 l -50 0 m 678 333 l 678 607 l 460 333 "},"Ć":{"ha":989,"x_min":0,"x_max":0,"o":"m 539 1236 l 763 1236 l 624 1035 l 469 1035 m 49 483 b 569 983 49 772 282 983 b 961 803 726 983 865 914 l 815 679 b 569 789 754 747 667 789 b 263 483 397 789 263 658 b 569 179 263 308 397 179 b 817 290 667 179 756 221 l 963 167 b 569 -15 867 54 726 -15 b 49 483 282 -15 49 194 "},"Ĉ":{"ha":989,"x_min":0,"x_max":0,"o":"m 515 1224 l 635 1224 l 836 1056 l 650 1056 l 575 1129 l 501 1056 l 314 1056 m 49 483 b 569 983 49 772 282 983 b 961 803 726 983 865 914 l 815 679 b 569 789 754 747 667 789 b 263 483 397 789 263 658 b 569 179 263 308 397 179 b 817 290 667 179 756 221 l 963 167 b 569 -15 867 54 726 -15 b 49 483 282 -15 49 194 "},"Č":{"ha":989,"x_min":0,"x_max":0,"o":"m 310 1236 l 496 1236 l 569 1164 l 644 1236 l 832 1236 l 631 1068 l 511 1068 m 49 483 b 569 983 49 772 282 983 b 961 803 726 983 865 914 l 815 679 b 569 789 754 747 667 789 b 263 483 397 789 263 658 b 569 179 263 308 397 179 b 817 290 667 179 756 221 l 963 167 b 569 -15 867 54 726 -15 b 49 483 282 -15 49 194 "},"Ċ":{"ha":989,"x_min":0,"x_max":0,"o":"m 568 1032 b 465 1131 513 1032 465 1075 b 568 1229 465 1185 513 1229 b 671 1131 624 1229 671 1185 b 568 1032 671 1075 624 1032 m 49 483 b 569 983 49 772 282 983 b 961 803 726 983 865 914 l 815 679 b 569 789 754 747 667 789 b 263 483 397 789 263 658 b 569 179 263 308 397 179 b 817 290 667 179 756 221 l 963 167 b 569 -15 867 54 726 -15 b 49 483 282 -15 49 194 "},"Ç":{"ha":989,"x_min":0,"x_max":0,"o":"m 49 483 b 569 983 49 772 282 983 b 961 803 726 983 865 914 l 815 679 b 569 789 754 747 667 789 b 263 483 397 789 263 658 b 569 179 263 308 397 179 b 817 290 667 179 756 221 l 963 167 b 590 -14 871 58 739 -8 l 589 -14 l 568 -64 b 660 -167 618 -64 660 -103 b 492 -303 660 -257 593 -303 b 361 -265 442 -303 389 -285 l 403 -179 b 468 -199 425 -193 440 -199 b 519 -156 497 -199 519 -182 b 438 -106 519 -115 489 -106 l 478 -7 b 49 483 233 31 49 225 "},"Ď":{"ha":1025,"x_min":0,"x_max":0,"o":"m 222 1236 l 408 1236 l 482 1164 l 557 1236 l 744 1236 l 543 1068 l 424 1068 m 94 968 l 461 968 b 975 482 799 968 975 763 b 463 0 975 197 800 0 l 94 0 m 449 194 b 760 482 693 194 760 322 b 447 774 760 646 693 774 l 308 774 l 308 194 "},"Đ":{"ha":1038,"x_min":0,"x_max":0,"o":"m 107 390 l 10 390 l 10 583 l 107 583 l 107 968 l 474 968 b 988 482 811 968 988 763 b 475 0 988 197 813 0 l 107 0 m 461 194 b 772 482 706 194 772 322 b 460 774 772 646 706 774 l 321 774 l 321 583 l 510 583 l 510 390 l 321 390 l 321 194 "},"È":{"ha":829,"x_min":0,"x_max":0,"o":"m 253 1236 l 457 1236 l 531 1035 l 382 1035 m 94 968 l 756 968 l 756 774 l 308 774 l 308 592 l 726 592 l 726 401 l 308 401 l 308 194 l 765 194 l 765 0 l 94 0 "},"É":{"ha":829,"x_min":0,"x_max":0,"o":"m 406 1236 l 629 1236 l 490 1035 l 336 1035 m 94 968 l 756 968 l 756 774 l 308 774 l 308 592 l 726 592 l 726 401 l 308 401 l 308 194 l 765 194 l 765 0 l 94 0 "},"Ê":{"ha":829,"x_min":0,"x_max":0,"o":"m 368 1224 l 488 1224 l 689 1056 l 503 1056 l 428 1129 l 354 1056 l 167 1056 m 94 968 l 756 968 l 756 774 l 308 774 l 308 592 l 726 592 l 726 401 l 308 401 l 308 194 l 765 194 l 765 0 l 94 0 "},"Ě":{"ha":829,"x_min":0,"x_max":0,"o":"m 169 1236 l 356 1236 l 429 1164 l 504 1236 l 692 1236 l 490 1068 l 371 1068 m 94 968 l 756 968 l 756 774 l 308 774 l 308 592 l 726 592 l 726 401 l 308 401 l 308 194 l 765 194 l 765 0 l 94 0 "},"Ë":{"ha":829,"x_min":0,"x_max":0,"o":"m 571 1032 b 471 1128 517 1032 471 1075 b 571 1225 471 1182 517 1225 b 672 1128 626 1225 672 1183 b 571 1032 672 1075 626 1032 m 282 1032 b 181 1128 226 1032 181 1075 b 282 1225 181 1182 226 1225 b 382 1128 336 1225 382 1183 b 282 1032 382 1075 336 1032 m 94 968 l 756 968 l 756 774 l 308 774 l 308 592 l 726 592 l 726 401 l 308 401 l 308 194 l 765 194 l 765 0 l 94 0 "},"Ē":{"ha":829,"x_min":0,"x_max":0,"o":"m 204 1183 l 644 1183 l 644 1050 l 204 1050 m 94 968 l 756 968 l 756 774 l 308 774 l 308 592 l 726 592 l 726 401 l 308 401 l 308 194 l 765 194 l 765 0 l 94 0 "},"Ĕ":{"ha":829,"x_min":0,"x_max":0,"o":"m 426 1038 b 182 1238 283 1038 197 1133 l 329 1238 b 426 1172 343 1199 375 1172 b 524 1238 478 1172 510 1199 l 671 1238 b 426 1038 656 1133 569 1038 m 94 968 l 756 968 l 756 774 l 308 774 l 308 592 l 726 592 l 726 401 l 308 401 l 308 194 l 765 194 l 765 0 l 94 0 "},"Ė":{"ha":829,"x_min":0,"x_max":0,"o":"m 425 1032 b 322 1131 369 1032 322 1075 b 425 1229 322 1185 369 1229 b 528 1131 481 1229 528 1185 b 425 1032 528 1075 481 1032 m 94 968 l 756 968 l 756 774 l 308 774 l 308 592 l 726 592 l 726 401 l 308 401 l 308 194 l 765 194 l 765 0 l 94 0 "},"Ę":{"ha":829,"x_min":0,"x_max":0,"o":"m 94 968 l 756 968 l 756 774 l 308 774 l 308 592 l 726 592 l 726 401 l 308 401 l 308 194 l 765 194 l 765 0 b 669 -122 728 -25 669 -71 b 739 -171 669 -156 703 -171 b 819 -154 768 -171 793 -165 l 792 -283 b 713 -303 767 -296 739 -303 b 535 -151 622 -303 535 -246 b 639 0 535 -83 588 -32 l 94 0 "},"Ĝ":{"ha":1042,"x_min":0,"x_max":0,"o":"m 507 1224 l 626 1224 l 828 1056 l 642 1056 l 567 1129 l 493 1056 l 306 1056 m 49 483 b 569 983 49 772 282 983 b 944 826 718 983 849 925 l 800 700 b 569 789 742 758 658 789 b 263 483 397 789 263 658 b 569 179 263 308 397 179 b 781 254 653 179 726 206 l 781 385 l 526 385 l 526 574 l 981 574 l 981 182 b 569 -15 892 64 742 -15 b 49 483 282 -15 49 194 "},"Ğ":{"ha":1042,"x_min":0,"x_max":0,"o":"m 563 1038 b 318 1238 419 1038 333 1133 l 465 1238 b 563 1172 479 1199 511 1172 b 660 1238 614 1172 646 1199 l 807 1238 b 563 1038 792 1133 706 1038 m 49 483 b 569 983 49 772 282 983 b 944 826 718 983 849 925 l 800 700 b 569 789 742 758 658 789 b 263 483 397 789 263 658 b 569 179 263 308 397 179 b 781 254 653 179 726 206 l 781 385 l 526 385 l 526 574 l 981 574 l 981 182 b 569 -15 892 64 742 -15 b 49 483 282 -15 49 194 "},"Ġ":{"ha":1042,"x_min":0,"x_max":0,"o":"m 564 1032 b 461 1131 508 1032 461 1075 b 564 1229 461 1185 508 1229 b 667 1131 621 1229 667 1185 b 564 1032 667 1075 621 1032 m 49 483 b 569 983 49 772 282 983 b 944 826 718 983 849 925 l 800 700 b 569 789 742 758 658 789 b 263 483 397 789 263 658 b 569 179 263 308 397 179 b 781 254 653 179 726 206 l 781 385 l 526 385 l 526 574 l 981 574 l 981 182 b 569 -15 892 64 742 -15 b 49 483 282 -15 49 194 "},"Ģ":{"ha":1042,"x_min":0,"x_max":0,"o":"m 49 483 b 569 983 49 772 282 983 b 944 826 718 983 849 925 l 800 700 b 569 789 742 758 658 789 b 263 483 397 789 263 658 b 569 179 263 308 397 179 b 781 254 653 179 726 206 l 781 385 l 526 385 l 526 574 l 981 574 l 981 182 b 569 -15 892 64 742 -15 b 49 483 282 -15 49 194 m 460 -67 l 683 -67 l 544 -268 l 389 -268 "},"Ĥ":{"ha":1038,"x_min":0,"x_max":0,"o":"m 465 1224 l 585 1224 l 786 1056 l 600 1056 l 525 1129 l 451 1056 l 264 1056 m 94 968 l 308 968 l 308 608 l 728 608 l 728 968 l 942 968 l 942 0 l 728 0 l 728 414 l 308 414 l 308 0 l 94 0 "},"Ħ":{"ha":1046,"x_min":0,"x_max":0,"o":"m 100 696 l 31 696 l 31 858 l 100 858 l 100 968 l 314 968 l 314 858 l 733 858 l 733 968 l 947 968 l 947 858 l 1015 858 l 1015 696 l 947 696 l 947 0 l 733 0 l 733 414 l 314 414 l 314 0 l 100 0 m 733 607 l 733 696 l 314 696 l 314 607 "},"Ì":{"ha":415,"x_min":0,"x_max":0,"o":"m 14 1236 l 236 1236 l 307 1035 l 151 1035 m 100 968 l 314 968 l 314 0 l 100 0 "},"Í":{"ha":415,"x_min":0,"x_max":0,"o":"m 178 1236 l 401 1236 l 263 1035 l 108 1035 m 100 968 l 314 968 l 314 0 l 100 0 "},"Î":{"ha":415,"x_min":0,"x_max":0,"o":"m 149 1224 l 267 1224 l 468 1056 l 282 1056 l 207 1129 l 133 1056 l -53 1056 m 100 968 l 314 968 l 314 0 l 100 0 "},"Ĩ":{"ha":415,"x_min":0,"x_max":0,"o":"m -71 1057 b 110 1238 -57 1161 7 1238 b 308 1179 197 1238 244 1179 b 371 1238 340 1179 360 1194 l 485 1219 b 303 1031 469 1104 417 1031 b 101 1089 213 1031 165 1089 b 44 1040 74 1089 50 1078 m 100 968 l 314 968 l 314 0 l 100 0 "},"Ï":{"ha":415,"x_min":0,"x_max":0,"o":"m 347 1032 b 247 1128 293 1032 247 1075 b 347 1225 247 1182 293 1225 b 449 1128 403 1225 449 1183 b 347 1032 449 1075 403 1032 m 67 1032 b -33 1128 13 1032 -33 1075 b 67 1225 -33 1182 13 1225 b 168 1128 122 1225 168 1183 b 67 1032 168 1075 122 1032 m 100 968 l 314 968 l 314 0 l 100 0 "},"Ī":{"ha":415,"x_min":0,"x_max":0,"o":"m -8 1183 l 424 1183 l 424 1050 l -8 1050 m 100 968 l 314 968 l 314 0 l 100 0 "},"Ĭ":{"ha":415,"x_min":0,"x_max":0,"o":"m 207 1038 b -37 1238 64 1038 -22 1133 l 110 1238 b 207 1172 124 1199 156 1172 b 304 1238 258 1172 290 1199 l 453 1238 b 207 1038 438 1133 350 1038 m 100 968 l 314 968 l 314 0 l 100 0 "},"İ":{"ha":415,"x_min":0,"x_max":0,"o":"m 207 1032 b 104 1131 151 1032 104 1075 b 207 1229 104 1185 151 1229 b 310 1131 264 1229 310 1185 b 207 1032 310 1075 264 1032 m 100 968 l 314 968 l 314 0 l 100 0 "},"Į":{"ha":415,"x_min":0,"x_max":0,"o":"m 100 968 l 314 968 l 314 0 b 217 -122 276 -21 217 -71 b 286 -171 217 -156 250 -171 b 367 -154 315 -171 340 -165 l 339 -283 b 260 -303 314 -296 286 -303 b 82 -151 169 -303 82 -246 b 185 0 82 -83 133 -32 l 100 0 "},"Ĳ":{"ha":742,"x_min":0,"x_max":0,"o":"m 107 196 b 301 179 154 185 235 179 b 431 315 421 179 431 244 l 431 968 l 644 968 l 644 314 b 329 -15 644 149 618 -15 b 107 4 257 -15 186 -11 m 107 968 l 321 968 l 321 263 l 107 263 "},"Ĵ":{"ha":507,"x_min":0,"x_max":0,"o":"m 256 1224 l 374 1224 l 575 1056 l 389 1056 l 314 1129 l 240 1056 l 54 1056 m 13 188 b 96 179 33 182 68 179 b 214 319 199 179 214 244 l 214 968 l 428 968 l 428 332 b 124 -15 428 158 406 -15 b 13 -6 88 -15 50 -12 "},"Ķ":{"ha":954,"x_min":0,"x_max":0,"o":"m 94 968 l 308 968 l 308 536 l 682 968 l 936 968 l 565 539 l 947 0 l 696 0 l 419 388 l 308 264 l 308 0 l 94 0 m 382 -67 l 606 -67 l 467 -268 l 313 -268 "},"Ĺ":{"ha":722,"x_min":0,"x_max":0,"o":"m 176 1236 l 400 1236 l 261 1035 l 107 1035 m 94 968 l 308 968 l 308 194 l 686 194 l 686 0 l 94 0 "},"Ľ":{"ha":722,"x_min":0,"x_max":0,"o":"m 94 968 l 308 968 l 308 194 l 686 194 l 686 0 l 94 0 m 451 968 l 675 968 l 536 767 l 382 767 "},"Ļ":{"ha":722,"x_min":0,"x_max":0,"o":"m 94 968 l 308 968 l 308 194 l 686 194 l 686 0 l 94 0 m 511 -67 l 372 -268 l 218 -268 l 288 -67 "},"Ŀ":{"ha":722,"x_min":0,"x_max":0,"o":"m 94 968 l 308 968 l 308 194 l 686 194 l 686 0 l 94 0 m 518 463 b 415 561 461 463 415 506 b 518 660 415 615 461 660 b 619 561 574 660 619 615 b 518 463 619 506 574 463 "},"Ł":{"ha":744,"x_min":0,"x_max":0,"o":"m 117 329 l 28 285 l 28 482 l 117 526 l 117 968 l 331 968 l 331 617 l 518 711 l 518 513 l 331 419 l 331 194 l 708 194 l 708 0 l 117 0 "},"Ń":{"ha":1050,"x_min":0,"x_max":0,"o":"m 490 1236 l 714 1236 l 575 1035 l 421 1035 m 94 968 l 285 968 l 749 367 l 749 968 l 956 968 l 956 0 l 781 0 l 301 618 l 301 0 l 94 0 "},"Ň":{"ha":1050,"x_min":0,"x_max":0,"o":"m 256 1236 l 442 1236 l 515 1164 l 590 1236 l 778 1236 l 576 1068 l 457 1068 m 94 968 l 285 968 l 749 367 l 749 968 l 956 968 l 956 0 l 781 0 l 301 618 l 301 0 l 94 0 "},"Ñ":{"ha":1050,"x_min":0,"x_max":0,"o":"m 242 1057 b 422 1238 257 1161 319 1238 b 629 1179 514 1238 563 1179 b 690 1238 661 1179 681 1194 l 806 1219 b 622 1031 790 1104 736 1031 b 414 1089 529 1031 481 1089 b 357 1040 386 1089 364 1078 l 242 1057 m 94 968 l 285 968 l 749 367 l 749 968 l 956 968 l 956 0 l 781 0 l 301 618 l 301 0 l 94 0 "},"Ņ":{"ha":1050,"x_min":0,"x_max":0,"o":"m 442 -67 l 665 -67 l 526 -268 l 372 -268 m 94 968 l 285 968 l 749 367 l 749 968 l 956 968 l 956 0 l 781 0 l 301 618 l 301 0 l 94 0 "},"Ò":{"ha":1131,"x_min":0,"x_max":0,"o":"m 357 1236 l 579 1236 l 650 1035 l 494 1035 m 49 482 b 565 983 49 763 279 983 b 1082 482 853 983 1082 763 b 565 -19 1082 200 853 -19 b 49 482 279 -19 49 200 m 263 482 b 565 175 263 308 394 175 b 868 482 735 175 868 311 b 565 789 868 650 736 789 b 263 482 394 789 263 651 "},"Ó":{"ha":1131,"x_min":0,"x_max":0,"o":"m 558 1236 l 782 1236 l 643 1035 l 489 1035 m 49 482 b 565 983 49 763 279 983 b 1082 482 853 983 1082 763 b 565 -19 1082 200 853 -19 b 49 482 279 -19 49 200 m 263 482 b 565 175 263 308 394 175 b 868 482 735 175 868 311 b 565 789 868 650 736 789 b 263 482 394 789 263 651 "},"Ô":{"ha":1131,"x_min":0,"x_max":0,"o":"m 514 1224 l 632 1224 l 833 1056 l 647 1056 l 572 1129 l 499 1056 l 313 1056 m 49 482 b 565 983 49 763 279 983 b 1082 482 853 983 1082 763 b 565 -19 1082 200 853 -19 b 49 482 279 -19 49 200 m 263 482 b 565 175 263 308 394 175 b 868 482 735 175 868 311 b 565 789 868 650 736 789 b 263 482 394 789 263 651 "},"Õ":{"ha":1131,"x_min":0,"x_max":0,"o":"m 293 1057 b 472 1238 307 1161 369 1238 b 679 1179 564 1238 613 1179 b 742 1238 711 1179 731 1194 l 856 1219 b 674 1031 840 1104 786 1031 b 464 1089 579 1031 531 1089 b 407 1040 438 1089 414 1078 l 293 1057 m 49 482 b 565 983 49 763 279 983 b 1082 482 853 983 1082 763 b 565 -19 1082 200 853 -19 b 49 482 279 -19 49 200 m 263 482 b 565 175 263 308 394 175 b 868 482 735 175 868 311 b 565 789 868 650 736 789 b 263 482 394 789 263 651 "},"Ö":{"ha":1131,"x_min":0,"x_max":0,"o":"m 719 1024 b 618 1119 664 1024 618 1067 b 719 1217 618 1174 664 1217 b 819 1119 774 1217 819 1174 b 719 1024 819 1067 774 1024 m 429 1024 b 329 1119 374 1024 329 1067 b 429 1217 329 1174 374 1217 b 529 1119 485 1217 529 1174 b 429 1024 529 1067 485 1024 m 49 482 b 565 983 49 763 279 983 b 1082 482 853 983 1082 763 b 565 -19 1082 200 853 -19 b 49 482 279 -19 49 200 m 263 482 b 565 175 263 308 394 175 b 868 482 735 175 868 311 b 565 789 868 650 736 789 b 263 482 394 789 263 651 "},"Ō":{"ha":1131,"x_min":0,"x_max":0,"o":"m 354 1185 l 794 1185 l 794 1050 l 354 1050 m 49 482 b 565 983 49 763 279 983 b 1082 482 853 983 1082 763 b 565 -19 1082 200 853 -19 b 49 482 279 -19 49 200 m 263 482 b 565 175 263 308 394 175 b 868 482 735 175 868 311 b 565 789 868 650 736 789 b 263 482 394 789 263 651 "},"Ŏ":{"ha":1131,"x_min":0,"x_max":0,"o":"m 572 1038 b 328 1238 429 1038 343 1133 l 475 1238 b 572 1172 489 1199 521 1172 b 669 1238 624 1172 656 1199 l 817 1238 b 572 1038 801 1133 715 1038 m 49 482 b 565 983 49 763 279 983 b 1082 482 853 983 1082 763 b 565 -19 1082 200 853 -19 b 49 482 279 -19 49 200 m 263 482 b 565 175 263 308 394 175 b 868 482 735 175 868 311 b 565 789 868 650 736 789 b 263 482 394 789 263 651 "},"Ő":{"ha":1131,"x_min":0,"x_max":0,"o":"m 719 1236 l 931 1236 l 765 1035 l 621 1035 m 467 1236 l 678 1236 l 514 1035 l 369 1035 m 49 482 b 565 983 49 763 279 983 b 1082 482 853 983 1082 763 b 565 -19 1082 200 853 -19 b 49 482 279 -19 49 200 m 263 482 b 565 175 263 308 394 175 b 868 482 735 175 868 311 b 565 789 868 650 736 789 b 263 482 394 789 263 651 "},"Ø":{"ha":1131,"x_min":0,"x_max":0,"o":"m 193 132 b 49 482 104 221 49 344 b 565 983 49 763 279 983 b 808 925 653 983 736 961 l 897 1039 l 1039 929 l 951 817 b 1082 482 1033 728 1082 611 b 565 -19 1082 200 853 -19 b 339 29 483 -19 407 -1 l 254 -81 l 114 29 m 686 764 b 565 789 650 779 608 789 b 263 482 394 789 263 651 b 324 294 263 410 285 346 m 463 192 b 565 175 494 181 529 175 b 868 482 735 175 868 311 b 818 650 868 543 850 601 l 463 192 "},"Ǿ":{"ha":1131,"x_min":0,"x_max":0,"o":"m 567 1236 l 790 1236 l 651 1035 l 497 1035 m 193 132 b 49 482 104 221 49 344 b 565 983 49 763 279 983 b 808 925 653 983 736 961 l 897 1039 l 1039 929 l 951 817 b 1082 482 1033 728 1082 611 b 565 -19 1082 200 853 -19 b 339 29 483 -19 407 -1 l 254 -81 l 114 29 m 686 764 b 565 789 650 779 608 789 b 263 482 394 789 263 651 b 324 294 263 410 285 346 m 463 192 b 565 175 494 181 529 175 b 868 482 735 175 868 311 b 818 650 868 543 850 601 l 463 192 "},"Œ":{"ha":1485,"x_min":0,"x_max":0,"o":"m 49 483 b 563 983 49 764 278 983 b 858 863 686 983 793 938 l 858 968 l 1413 968 l 1413 775 l 1069 775 l 1069 586 l 1386 586 l 1386 407 l 1069 407 l 1069 190 l 1422 190 l 1422 0 l 858 0 l 858 106 b 563 -15 793 29 686 -15 b 49 483 278 -15 49 203 m 267 483 b 574 176 267 310 403 176 b 882 483 744 176 882 313 b 574 790 882 653 746 790 b 267 483 401 790 267 654 "},"Ŕ":{"ha":911,"x_min":0,"x_max":0,"o":"m 408 1236 l 632 1236 l 493 1035 l 339 1035 m 94 968 l 500 968 b 829 649 681 968 829 829 b 657 374 829 522 760 418 l 893 0 l 651 0 l 450 322 l 447 322 l 307 322 l 307 0 l 94 0 m 476 511 b 615 646 560 511 615 564 b 494 774 615 721 563 774 l 307 774 l 307 511 "},"Ř":{"ha":911,"x_min":0,"x_max":0,"o":"m 178 1236 l 364 1236 l 438 1164 l 513 1236 l 700 1236 l 499 1068 l 379 1068 m 94 968 l 500 968 b 829 649 681 968 829 829 b 657 374 829 522 760 418 l 893 0 l 651 0 l 450 322 l 447 322 l 307 322 l 307 0 l 94 0 m 476 511 b 615 646 560 511 615 564 b 494 774 615 721 563 774 l 307 774 l 307 511 "},"Ŗ":{"ha":911,"x_min":0,"x_max":0,"o":"m 94 968 l 500 968 b 829 649 681 968 829 829 b 657 374 829 522 760 418 l 893 0 l 651 0 l 450 322 l 447 322 l 307 322 l 307 0 l 94 0 m 476 511 b 615 646 560 511 615 564 b 494 774 615 721 563 774 l 307 774 l 307 511 m 592 -67 l 453 -268 l 299 -268 l 368 -67 "},"Ś":{"ha":806,"x_min":0,"x_max":0,"o":"m 386 1236 l 610 1236 l 471 1035 l 315 1035 m 167 306 b 410 178 213 229 297 178 b 554 274 517 178 554 228 b 311 429 554 358 446 379 b 76 710 172 479 76 554 b 399 983 76 883 226 983 b 721 825 561 983 663 907 l 578 717 b 404 792 543 761 488 792 b 288 713 332 792 288 758 b 521 568 288 632 364 629 b 768 281 696 501 768 419 b 408 -15 768 110 654 -15 b 11 199 200 -15 71 82 "},"Ŝ":{"ha":806,"x_min":0,"x_max":0,"o":"m 353 1224 l 471 1224 l 672 1056 l 486 1056 l 411 1129 l 338 1056 l 151 1056 m 167 306 b 410 178 213 229 297 178 b 554 274 517 178 554 228 b 311 429 554 358 446 379 b 76 710 172 479 76 554 b 399 983 76 883 226 983 b 721 825 561 983 663 907 l 578 717 b 404 792 543 761 488 792 b 288 713 332 792 288 758 b 521 568 288 632 364 629 b 768 281 696 501 768 419 b 408 -15 768 110 654 -15 b 11 199 200 -15 71 82 "},"Š":{"ha":806,"x_min":0,"x_max":0,"o":"m 154 1236 l 340 1236 l 414 1164 l 489 1236 l 676 1236 l 475 1068 l 356 1068 m 167 306 b 410 178 213 229 297 178 b 554 274 517 178 554 228 b 311 429 554 358 446 379 b 76 710 172 479 76 554 b 399 983 76 883 226 983 b 721 825 561 983 663 907 l 578 717 b 404 792 543 761 488 792 b 288 713 332 792 288 758 b 521 568 288 632 364 629 b 768 281 696 501 768 419 b 408 -15 768 110 654 -15 b 11 199 200 -15 71 82 "},"Ș":{"ha":806,"x_min":0,"x_max":0,"o":"m 167 306 b 410 178 213 229 297 178 b 554 274 517 178 554 228 b 311 429 554 358 446 379 b 76 710 172 479 76 554 b 399 983 76 883 226 983 b 721 825 561 983 663 907 l 578 717 b 404 792 543 761 488 792 b 288 713 332 792 288 758 b 521 568 288 632 364 629 b 768 281 696 501 768 419 b 408 -15 768 110 654 -15 b 11 199 200 -15 71 82 m 299 -67 l 522 -67 l 383 -268 l 229 -268 "},"Ş":{"ha":806,"x_min":0,"x_max":0,"o":"m 167 306 b 410 178 213 229 297 178 b 554 274 517 178 554 228 b 311 429 554 358 446 379 b 76 710 172 479 76 554 b 399 983 76 883 226 983 b 721 825 561 983 663 907 l 578 717 b 404 792 543 761 488 792 b 288 713 332 792 288 758 b 521 568 288 632 364 629 b 768 281 696 501 768 419 b 454 -14 768 121 668 1 l 432 -64 b 524 -167 482 -64 524 -103 b 356 -303 524 -257 457 -303 b 225 -265 306 -303 253 -285 l 267 -179 b 332 -199 289 -193 304 -199 b 383 -156 361 -199 383 -182 b 301 -106 383 -115 353 -106 l 340 -11 b 11 199 171 7 64 94 "},"Ť":{"ha":771,"x_min":0,"x_max":0,"o":"m 125 1236 l 311 1236 l 385 1164 l 460 1236 l 647 1236 l 446 1068 l 326 1068 m 281 774 l 18 774 l 18 968 l 753 968 l 753 774 l 494 774 l 494 0 l 281 0 "},"Ţ":{"ha":771,"x_min":0,"x_max":0,"o":"m 281 774 l 18 774 l 18 968 l 753 968 l 753 774 l 494 774 l 494 0 l 281 0 m 499 -67 l 360 -268 l 206 -268 l 275 -67 "},"Ŧ":{"ha":771,"x_min":0,"x_max":0,"o":"m 281 410 l 133 410 l 133 588 l 281 588 l 281 774 l 18 774 l 18 968 l 753 968 l 753 774 l 494 774 l 494 588 l 636 588 l 636 410 l 494 410 l 494 0 l 281 0 "},"Ù":{"ha":993,"x_min":0,"x_max":0,"o":"m 300 1236 l 522 1236 l 593 1035 l 438 1035 m 85 968 l 299 968 l 299 414 b 497 179 299 244 378 179 b 694 414 615 179 694 244 l 694 968 l 908 968 l 908 392 b 497 -15 908 118 722 -15 b 85 392 271 -15 85 118 "},"Ú":{"ha":993,"x_min":0,"x_max":0,"o":"m 483 1236 l 707 1236 l 568 1035 l 414 1035 m 85 968 l 299 968 l 299 414 b 497 179 299 244 378 179 b 694 414 615 179 694 244 l 694 968 l 908 968 l 908 392 b 497 -15 908 118 722 -15 b 85 392 271 -15 85 118 "},"Û":{"ha":993,"x_min":0,"x_max":0,"o":"m 439 1224 l 557 1224 l 758 1056 l 572 1056 l 497 1129 l 424 1056 l 238 1056 m 85 968 l 299 968 l 299 414 b 497 179 299 244 378 179 b 694 414 615 179 694 244 l 694 968 l 908 968 l 908 392 b 497 -15 908 118 722 -15 b 85 392 271 -15 85 118 "},"Ũ":{"ha":993,"x_min":0,"x_max":0,"o":"m 221 1057 b 400 1238 235 1161 297 1238 b 607 1179 492 1238 540 1179 b 669 1238 639 1179 658 1194 l 783 1219 b 601 1031 768 1104 715 1031 b 392 1089 508 1031 458 1089 b 335 1040 365 1089 343 1078 l 221 1057 m 85 968 l 299 968 l 299 414 b 497 179 299 244 378 179 b 694 414 615 179 694 244 l 694 968 l 908 968 l 908 392 b 497 -15 908 118 722 -15 b 85 392 271 -15 85 118 "},"Ü":{"ha":993,"x_min":0,"x_max":0,"o":"m 642 1024 b 540 1119 586 1024 540 1067 b 642 1217 540 1174 586 1217 b 742 1119 696 1217 742 1174 b 642 1024 742 1067 696 1024 m 351 1024 b 251 1119 297 1024 251 1067 b 351 1217 251 1174 297 1217 b 453 1119 407 1217 453 1174 b 351 1024 453 1067 407 1024 m 85 968 l 299 968 l 299 414 b 497 179 299 244 378 179 b 694 414 615 179 694 244 l 694 968 l 908 968 l 908 392 b 497 -15 908 118 722 -15 b 85 392 271 -15 85 118 "},"Ū":{"ha":993,"x_min":0,"x_max":0,"o":"m 276 1185 l 717 1185 l 717 1050 l 276 1050 m 85 968 l 299 968 l 299 414 b 497 179 299 244 378 179 b 694 414 615 179 694 244 l 694 968 l 908 968 l 908 392 b 497 -15 908 118 722 -15 b 85 392 271 -15 85 118 "},"Ŭ":{"ha":993,"x_min":0,"x_max":0,"o":"m 497 1038 b 251 1238 353 1038 267 1133 l 399 1238 b 497 1172 414 1199 444 1172 b 594 1238 549 1172 579 1199 l 742 1238 b 497 1038 726 1133 640 1038 m 85 968 l 299 968 l 299 414 b 497 179 299 244 378 179 b 694 414 615 179 694 244 l 694 968 l 908 968 l 908 392 b 497 -15 908 118 722 -15 b 85 392 271 -15 85 118 "},"Ů":{"ha":993,"x_min":0,"x_max":0,"o":"m 497 988 b 326 1147 403 988 326 1060 b 497 1308 326 1236 403 1308 b 665 1147 589 1308 665 1236 b 497 988 665 1060 590 988 m 497 1094 b 550 1147 526 1094 550 1118 b 497 1200 550 1176 526 1200 b 443 1147 468 1200 443 1176 b 497 1094 443 1118 468 1094 m 85 968 l 299 968 l 299 414 b 497 179 299 244 378 179 b 694 414 615 179 694 244 l 694 968 l 908 968 l 908 392 b 497 -15 908 118 722 -15 b 85 392 271 -15 85 118 "},"Ű":{"ha":993,"x_min":0,"x_max":0,"o":"m 640 1236 l 851 1236 l 686 1035 l 543 1035 m 388 1236 l 599 1236 l 435 1035 l 290 1035 m 85 968 l 299 968 l 299 414 b 497 179 299 244 378 179 b 694 414 615 179 694 244 l 694 968 l 908 968 l 908 392 b 497 -15 908 118 722 -15 b 85 392 271 -15 85 118 "},"Ų":{"ha":993,"x_min":0,"x_max":0,"o":"m 85 968 l 299 968 l 299 414 b 497 179 299 244 378 179 b 694 414 615 179 694 244 l 694 968 l 908 968 l 908 393 b 757 61 908 236 847 128 b 579 -104 685 7 579 -21 b 649 -158 579 -140 607 -158 b 729 -142 678 -158 704 -151 l 703 -271 b 624 -290 678 -283 650 -290 b 444 -137 533 -290 444 -233 b 514 -14 444 -85 476 -44 b 497 -15 511 -15 500 -15 b 85 392 271 -15 85 118 "},"Ẁ":{"ha":1342,"x_min":0,"x_max":0,"o":"m 474 1236 l 696 1236 l 767 1035 l 611 1035 m 21 968 l 232 968 l 414 375 l 588 968 l 756 968 l 929 375 l 1111 968 l 1321 968 l 1028 0 l 847 0 l 671 578 l 494 0 l 314 0 "},"Ẃ":{"ha":1342,"x_min":0,"x_max":0,"o":"m 647 1236 l 871 1236 l 732 1035 l 576 1035 m 21 968 l 232 968 l 414 375 l 588 968 l 756 968 l 929 375 l 1111 968 l 1321 968 l 1028 0 l 847 0 l 671 578 l 494 0 l 314 0 "},"Ŵ":{"ha":1342,"x_min":0,"x_max":0,"o":"m 613 1224 l 731 1224 l 932 1056 l 746 1056 l 671 1129 l 597 1056 l 411 1056 m 21 968 l 232 968 l 414 375 l 588 968 l 756 968 l 929 375 l 1111 968 l 1321 968 l 1028 0 l 847 0 l 671 578 l 494 0 l 314 0 "},"Ẅ":{"ha":1342,"x_min":0,"x_max":0,"o":"m 815 1024 b 715 1119 761 1024 715 1067 b 815 1217 715 1174 761 1217 b 917 1119 871 1217 917 1174 b 815 1024 917 1067 871 1024 m 526 1024 b 425 1119 471 1024 425 1067 b 526 1217 425 1174 471 1217 b 626 1119 581 1217 626 1174 b 526 1024 626 1067 581 1024 m 21 968 l 232 968 l 414 375 l 588 968 l 756 968 l 929 375 l 1111 968 l 1321 968 l 1028 0 l 847 0 l 671 578 l 494 0 l 314 0 "},"Ỳ":{"ha":956,"x_min":0,"x_max":0,"o":"m 279 1236 l 503 1236 l 572 1035 l 418 1035 m 371 361 l 15 968 l 247 968 l 478 565 l 708 968 l 940 968 l 585 361 l 585 0 l 371 0 "},"Ý":{"ha":956,"x_min":0,"x_max":0,"o":"m 461 1236 l 685 1236 l 546 1035 l 392 1035 m 371 361 l 15 968 l 247 968 l 478 565 l 708 968 l 940 968 l 585 361 l 585 0 l 371 0 "},"Ŷ":{"ha":956,"x_min":0,"x_max":0,"o":"m 418 1224 l 536 1224 l 738 1056 l 551 1056 l 476 1129 l 403 1056 l 217 1056 m 371 361 l 15 968 l 247 968 l 478 565 l 708 968 l 940 968 l 585 361 l 585 0 l 371 0 "},"Ÿ":{"ha":956,"x_min":0,"x_max":0,"o":"m 621 1022 b 521 1119 567 1022 521 1065 b 621 1217 521 1172 567 1217 b 722 1119 676 1217 722 1174 b 621 1022 722 1065 676 1022 m 332 1022 b 231 1119 276 1022 231 1065 b 332 1217 231 1172 276 1217 b 432 1119 386 1217 432 1174 b 332 1022 432 1065 386 1022 m 371 361 l 15 968 l 247 968 l 478 565 l 708 968 l 940 968 l 585 361 l 585 0 l 371 0 "},"Ź":{"ha":903,"x_min":0,"x_max":0,"o":"m 457 1236 l 681 1236 l 542 1035 l 388 1035 m 50 146 l 564 774 l 99 774 l 99 968 l 844 968 l 844 807 l 343 194 l 854 194 l 854 0 l 50 0 "},"Ž":{"ha":903,"x_min":0,"x_max":0,"o":"m 222 1236 l 408 1236 l 482 1164 l 557 1236 l 744 1236 l 543 1068 l 424 1068 m 50 146 l 564 774 l 99 774 l 99 968 l 844 968 l 844 807 l 343 194 l 854 194 l 854 0 l 50 0 "},"Ż":{"ha":903,"x_min":0,"x_max":0,"o":"m 479 1032 b 376 1131 422 1032 376 1075 b 479 1229 376 1185 422 1229 b 581 1131 535 1229 581 1185 b 479 1032 581 1075 535 1032 m 50 146 l 564 774 l 99 774 l 99 968 l 844 968 l 844 807 l 343 194 l 854 194 l 854 0 l 50 0 "},"Ŋ":{"ha":1047,"x_min":0,"x_max":0,"o":"m 94 968 l 288 968 l 749 376 l 749 968 l 956 968 l 956 60 b 656 -289 956 -121 925 -289 b 554 -278 624 -289 589 -286 l 554 -87 b 639 -96 575 -93 607 -96 b 749 47 736 -96 749 -24 l 749 60 l 301 625 l 301 0 l 94 0 "},"Ð":{"ha":1036,"x_min":0,"x_max":0,"o":"m 107 390 l 10 390 l 10 583 l 107 583 l 107 968 l 474 968 b 988 482 811 968 988 763 b 475 0 988 197 813 0 l 107 0 m 461 194 b 772 482 706 194 772 322 b 460 774 772 646 706 774 l 321 774 l 321 583 l 510 583 l 510 390 l 321 390 l 321 194 "},"Þ":{"ha":768,"x_min":0,"x_max":0,"o":"m 94 968 l 308 968 l 308 794 l 396 794 b 729 481 590 794 729 656 b 399 169 729 307 592 169 l 308 169 l 308 0 l 94 0 m 396 363 b 518 482 469 363 518 413 b 394 601 518 550 469 601 l 308 601 l 308 363 "},"a":{"ha":910,"x_min":0,"x_max":0,"o":"m 39 350 b 386 713 39 551 188 713 b 594 608 493 713 575 669 l 594 700 l 801 700 l 801 246 b 853 168 801 189 817 168 b 888 171 863 168 878 169 l 888 -1 b 794 -12 867 -8 828 -12 b 681 13 757 -12 715 -7 b 618 88 658 26 631 49 b 386 -14 578 28 508 -14 b 39 350 188 -14 39 146 m 246 350 b 424 175 246 251 324 175 b 607 350 525 175 607 251 b 424 525 607 449 525 525 b 246 350 324 525 246 449 "},"b":{"ha":869,"x_min":0,"x_max":0,"o":"m 69 968 l 276 968 l 276 608 b 485 713 296 669 378 713 b 832 350 683 713 832 551 b 485 -12 832 147 683 -12 b 276 92 378 -12 296 32 l 276 0 l 69 0 m 264 350 b 447 175 264 251 346 175 b 625 350 547 175 625 251 b 447 525 625 449 547 525 b 264 350 346 525 264 449 "},"c":{"ha":740,"x_min":0,"x_max":0,"o":"m 39 351 b 425 722 39 565 211 722 b 717 592 529 722 628 689 l 586 463 b 425 535 543 508 497 535 b 246 351 325 535 246 458 b 425 169 246 246 325 169 b 586 242 497 169 543 196 l 717 113 b 425 -18 628 15 529 -18 b 39 351 211 -18 39 138 "},"d":{"ha":910,"x_min":0,"x_max":0,"o":"m 39 350 b 386 713 39 551 188 713 b 594 608 493 713 575 669 l 594 968 l 801 968 l 801 246 b 853 168 801 189 817 168 b 888 171 863 168 878 169 l 888 -1 b 794 -12 867 -8 828 -12 b 681 13 757 -12 715 -7 b 618 88 658 26 631 49 b 386 -14 578 28 508 -14 b 39 350 188 -14 39 146 m 246 350 b 424 175 246 251 324 175 b 607 350 525 175 607 251 b 424 525 607 449 525 525 b 246 350 324 525 246 449 "},"e":{"ha":811,"x_min":0,"x_max":0,"o":"m 39 351 b 418 718 39 575 200 718 b 778 363 635 718 778 560 b 775 296 778 363 778 328 l 246 296 b 432 158 250 213 322 158 b 603 226 504 158 554 181 l 724 111 b 422 -17 631 15 529 -17 b 39 346 194 -17 39 126 m 569 431 b 418 547 569 494 501 547 b 249 431 328 547 254 496 "},"f":{"ha":522,"x_min":0,"x_max":0,"o":"m 149 513 l 33 513 l 33 700 l 149 700 l 149 719 b 231 936 149 835 176 893 b 424 988 289 985 363 988 b 507 981 453 988 490 983 l 507 808 b 444 815 489 815 465 815 b 349 732 379 815 349 792 l 349 700 l 489 700 l 489 513 l 349 513 l 349 0 l 149 0 "},"g":{"ha":867,"x_min":0,"x_max":0,"o":"m 181 -57 b 396 -124 244 -97 314 -124 b 539 -87 453 -124 504 -111 b 600 65 593 -50 600 13 l 600 81 b 386 -4 571 32 490 -4 b 39 350 188 -4 39 151 b 386 713 39 551 188 713 b 594 608 493 713 575 669 l 594 700 l 801 700 l 801 117 b 679 -225 801 -28 782 -144 b 425 -306 615 -275 524 -306 b 82 -207 290 -306 178 -275 l 181 -57 m 246 350 b 424 178 246 253 324 178 b 607 350 525 178 607 253 b 424 525 607 449 525 525 b 246 350 324 525 246 449 "},"h":{"ha":826,"x_min":0,"x_max":0,"o":"m 69 968 l 276 968 l 276 615 b 472 715 304 675 379 715 b 732 425 639 715 732 606 l 732 249 b 778 175 732 197 740 175 b 799 176 786 175 796 176 l 799 1 b 710 -8 794 0 764 -8 b 525 192 600 -8 525 44 l 525 400 b 406 532 525 481 483 532 b 276 393 331 532 276 475 l 276 0 l 69 0 "},"i":{"ha":374,"x_min":0,"x_max":0,"o":"m 69 700 l 276 700 l 276 246 b 324 172 276 196 288 172 b 349 175 332 172 346 174 l 349 -1 b 253 -12 342 -4 310 -12 b 69 185 142 -12 69 40 m 172 760 b 54 876 108 760 54 811 b 172 994 54 943 108 994 b 290 876 238 994 290 943 b 172 760 290 811 238 760 "},"j":{"ha":340,"x_min":0,"x_max":0,"o":"m 171 758 b 53 876 107 758 53 811 b 171 993 53 942 107 993 b 289 876 236 993 289 942 b 171 758 289 811 236 758 m 68 700 l 275 700 l 275 -51 b 31 -301 275 -269 135 -301 b -60 -296 -3 -301 -40 -299 l -60 -115 b -15 -118 -44 -117 -28 -118 b 68 -26 42 -118 68 -94 "},"k":{"ha":763,"x_min":0,"x_max":0,"o":"m 69 968 l 276 968 l 276 433 l 507 700 l 747 700 l 468 383 l 771 0 l 538 0 l 335 258 l 276 196 l 276 0 l 69 0 "},"l":{"ha":426,"x_min":0,"x_max":0,"o":"m 65 968 l 272 968 l 272 260 b 353 169 272 196 296 169 b 403 175 368 169 388 171 l 403 -8 b 304 -18 382 -14 342 -18 b 65 228 206 -18 65 13 "},"m":{"ha":1219,"x_min":0,"x_max":0,"o":"m 69 700 l 276 700 l 276 613 b 458 715 303 674 372 715 b 649 604 554 715 617 676 b 879 715 694 692 782 715 b 1125 425 1038 715 1125 606 l 1125 249 b 1171 175 1125 197 1133 175 b 1192 176 1179 175 1189 176 l 1192 1 b 1103 -8 1188 0 1157 -8 b 918 192 993 -8 918 44 l 918 400 b 817 532 918 481 883 532 b 703 393 750 532 703 475 l 703 0 l 496 0 l 496 400 b 392 532 496 481 460 532 b 276 393 325 532 276 475 l 276 0 l 69 0 "},"n":{"ha":839,"x_min":0,"x_max":0,"o":"m 69 700 l 276 700 l 276 613 b 478 715 306 674 382 715 b 743 425 649 715 743 606 l 743 249 b 789 175 743 197 753 175 b 811 176 797 175 808 176 l 811 1 b 721 -8 804 -1 775 -8 b 536 192 610 -8 536 44 l 536 400 b 411 532 536 481 493 532 b 276 393 333 532 276 475 l 276 0 l 69 0 "},"o":{"ha":856,"x_min":0,"x_max":0,"o":"m 39 350 b 428 721 39 557 211 721 b 817 350 643 721 817 557 b 428 -21 817 143 643 -21 b 39 350 211 -21 39 143 m 246 350 b 428 167 246 247 325 167 b 610 350 529 167 610 247 b 428 533 610 451 529 533 b 246 350 325 533 246 451 "},"p":{"ha":869,"x_min":0,"x_max":0,"o":"m 69 700 l 276 700 l 276 608 b 485 713 296 668 378 713 b 832 350 683 713 832 553 b 485 -12 832 149 683 -12 b 276 92 378 -12 296 31 l 276 -268 l 69 -268 m 264 350 b 447 175 264 251 346 175 b 625 350 547 175 625 251 b 447 525 625 449 547 525 b 264 350 346 525 264 449 "},"q":{"ha":864,"x_min":0,"x_max":0,"o":"m 39 350 b 386 713 39 553 188 713 b 594 608 493 713 575 668 l 594 700 l 801 700 l 801 -268 l 594 -268 l 594 92 b 386 -12 575 31 493 -12 b 39 350 188 -12 39 149 m 246 350 b 424 175 246 251 324 175 b 607 350 525 175 607 251 b 424 525 607 449 525 525 b 246 350 324 525 246 449 "},"r":{"ha":568,"x_min":0,"x_max":0,"o":"m 69 700 l 276 700 l 276 604 b 479 715 308 675 383 715 b 533 711 499 715 522 713 l 533 517 b 464 524 514 521 490 524 b 276 342 346 524 276 456 l 276 0 l 69 0 "},"s":{"ha":658,"x_min":0,"x_max":0,"o":"m 135 233 b 326 157 172 189 244 157 b 432 214 400 157 432 181 b 229 301 432 261 336 265 b 68 496 132 335 68 390 b 340 721 68 646 199 721 b 581 631 457 721 532 678 l 482 494 b 335 546 454 519 408 546 b 265 501 288 546 265 525 b 457 415 265 454 322 463 b 629 217 583 372 629 306 b 321 -19 629 82 535 -19 b 15 106 164 -19 68 40 "},"t":{"ha":488,"x_min":0,"x_max":0,"o":"m 110 513 l 18 513 l 18 700 l 110 700 l 110 968 l 311 968 l 311 700 l 467 700 l 467 513 l 311 513 l 311 263 b 400 169 311 194 339 169 b 453 175 415 169 435 172 l 453 -8 b 351 -18 429 -14 390 -18 b 110 232 249 -18 110 13 "},"u":{"ha":835,"x_min":0,"x_max":0,"o":"m 63 700 l 269 700 l 269 300 b 390 168 269 219 311 168 b 519 307 465 168 519 225 l 519 700 l 726 700 l 726 246 b 778 168 726 189 742 168 b 813 171 788 168 803 169 l 813 -1 b 719 -12 792 -8 753 -12 b 606 13 682 -12 640 -7 b 543 88 583 26 556 49 b 338 -15 513 28 446 -15 b 63 275 161 -15 63 94 "},"v":{"ha":790,"x_min":0,"x_max":0,"o":"m 3 700 l 213 700 l 396 256 l 578 700 l 788 700 l 488 0 l 303 0 "},"w":{"ha":1040,"x_min":0,"x_max":0,"o":"m 4 700 l 196 700 l 319 310 l 439 700 l 600 700 l 721 310 l 844 700 l 1036 700 l 814 0 l 643 0 l 519 400 l 397 0 l 225 0 "},"x":{"ha":769,"x_min":0,"x_max":0,"o":"m 269 368 l 29 700 l 254 700 l 385 515 l 515 700 l 740 700 l 500 368 l 765 0 l 542 0 l 385 218 l 228 0 l 4 0 "},"y":{"ha":808,"x_min":0,"x_max":0,"o":"m 125 -112 b 210 -124 150 -121 183 -124 b 269 -108 238 -124 254 -119 b 299 -64 282 -100 293 -83 l 310 -33 l 11 700 l 222 700 l 413 214 l 585 700 l 796 700 l 485 -111 b 404 -240 464 -164 440 -208 b 217 -301 356 -283 292 -301 b 125 -292 182 -301 150 -297 l 125 -112 "},"z":{"ha":742,"x_min":0,"x_max":0,"o":"m 24 131 l 401 518 l 61 518 l 61 700 l 689 700 l 689 554 l 333 182 l 703 182 l 703 0 l 24 0 "},"à":{"ha":910,"x_min":0,"x_max":0,"o":"m 254 968 l 478 968 l 547 767 l 393 767 m 39 350 b 386 713 39 551 188 713 b 594 608 493 713 575 669 l 594 700 l 801 700 l 801 246 b 853 168 801 189 817 168 b 888 171 863 168 878 169 l 888 -1 b 794 -12 867 -8 828 -12 b 681 13 757 -12 715 -7 b 618 88 658 26 631 49 b 386 -14 578 28 508 -14 b 39 350 188 -14 39 146 m 246 350 b 424 175 246 251 324 175 b 607 350 525 175 607 251 b 424 525 607 449 525 525 b 246 350 324 525 246 449 "},"á":{"ha":910,"x_min":0,"x_max":0,"o":"m 436 968 l 660 968 l 521 767 l 367 767 m 39 350 b 386 713 39 551 188 713 b 594 608 493 713 575 669 l 594 700 l 801 700 l 801 246 b 853 168 801 189 817 168 b 888 171 863 168 878 169 l 888 -1 b 794 -12 867 -8 828 -12 b 681 13 757 -12 715 -7 b 618 88 658 26 631 49 b 386 -14 578 28 508 -14 b 39 350 188 -14 39 146 m 246 350 b 424 175 246 251 324 175 b 607 350 525 175 607 251 b 424 525 607 449 525 525 b 246 350 324 525 246 449 "},"â":{"ha":910,"x_min":0,"x_max":0,"o":"m 403 946 l 521 946 l 722 778 l 536 778 l 461 850 l 388 778 l 201 778 m 39 350 b 386 713 39 551 188 713 b 594 608 493 713 575 669 l 594 700 l 801 700 l 801 246 b 853 168 801 189 817 168 b 888 171 863 168 878 169 l 888 -1 b 794 -12 867 -8 828 -12 b 681 13 757 -12 715 -7 b 618 88 658 26 631 49 b 386 -14 578 28 508 -14 b 39 350 188 -14 39 146 m 246 350 b 424 175 246 251 324 175 b 607 350 525 175 607 251 b 424 525 607 449 525 525 b 246 350 324 525 246 449 "},"ã":{"ha":910,"x_min":0,"x_max":0,"o":"m 167 807 b 347 983 181 907 244 983 b 554 924 439 983 488 924 b 615 982 586 924 606 940 l 731 965 b 547 779 715 853 661 779 b 339 839 454 779 406 839 b 282 790 311 839 289 828 l 167 807 m 39 350 b 386 713 39 551 188 713 b 594 608 493 713 575 669 l 594 700 l 801 700 l 801 246 b 853 168 801 189 817 168 b 888 171 863 168 878 169 l 888 -1 b 794 -12 867 -8 828 -12 b 681 13 757 -12 715 -7 b 618 88 658 26 631 49 b 386 -14 578 28 508 -14 b 39 350 188 -14 39 146 m 246 350 b 424 175 246 251 324 175 b 607 350 525 175 607 251 b 424 525 607 449 525 525 b 246 350 324 525 246 449 "},"ä":{"ha":910,"x_min":0,"x_max":0,"o":"m 603 771 b 503 867 549 771 503 814 b 603 964 503 921 549 964 b 704 867 658 964 704 922 b 603 771 704 814 658 771 m 313 771 b 213 867 258 771 213 814 b 313 964 213 921 258 964 b 414 867 368 964 414 922 b 313 771 414 814 368 771 m 39 350 b 386 713 39 551 188 713 b 594 608 493 713 575 669 l 594 700 l 801 700 l 801 246 b 853 168 801 189 817 168 b 888 171 863 168 878 169 l 888 -1 b 794 -12 867 -8 828 -12 b 681 13 757 -12 715 -7 b 618 88 658 26 631 49 b 386 -14 578 28 508 -14 b 39 350 188 -14 39 146 m 246 350 b 424 175 246 251 324 175 b 607 350 525 175 607 251 b 424 525 607 449 525 525 b 246 350 324 525 246 449 "},"ā":{"ha":910,"x_min":0,"x_max":0,"o":"m 251 926 l 692 926 l 692 793 l 251 793 m 39 350 b 386 713 39 551 188 713 b 594 608 493 713 575 669 l 594 700 l 801 700 l 801 246 b 853 168 801 189 817 168 b 888 171 863 168 878 169 l 888 -1 b 794 -12 867 -8 828 -12 b 681 13 757 -12 715 -7 b 618 88 658 26 631 49 b 386 -14 578 28 508 -14 b 39 350 188 -14 39 146 m 246 350 b 424 175 246 251 324 175 b 607 350 525 175 607 251 b 424 525 607 449 525 525 b 246 350 324 525 246 449 "},"ă":{"ha":910,"x_min":0,"x_max":0,"o":"m 456 769 b 210 969 313 769 225 865 l 358 969 b 456 904 372 931 403 904 b 553 969 507 904 538 931 l 700 969 b 456 769 685 865 599 769 m 39 350 b 386 713 39 551 188 713 b 594 608 493 713 575 669 l 594 700 l 801 700 l 801 246 b 853 168 801 189 817 168 b 888 171 863 168 878 169 l 888 -1 b 794 -12 867 -8 828 -12 b 681 13 757 -12 715 -7 b 618 88 658 26 631 49 b 386 -14 578 28 508 -14 b 39 350 188 -14 39 146 m 246 350 b 424 175 246 251 324 175 b 607 350 525 175 607 251 b 424 525 607 449 525 525 b 246 350 324 525 246 449 "},"å":{"ha":910,"x_min":0,"x_max":0,"o":"m 458 760 b 289 921 365 760 289 832 b 458 1081 289 1008 365 1081 b 626 921 551 1081 626 1008 b 458 760 626 832 551 760 m 458 868 b 511 921 488 868 511 892 b 458 974 511 950 488 974 b 404 921 429 974 404 950 b 458 868 404 892 429 868 m 39 350 b 386 713 39 551 188 713 b 594 608 493 713 575 669 l 594 700 l 801 700 l 801 246 b 853 168 801 189 817 168 b 888 171 863 168 878 169 l 888 -1 b 794 -12 867 -8 828 -12 b 681 13 757 -12 715 -7 b 618 88 658 26 631 49 b 386 -14 578 28 508 -14 b 39 350 188 -14 39 146 m 246 350 b 424 175 246 251 324 175 b 607 350 525 175 607 251 b 424 525 607 449 525 525 b 246 350 324 525 246 449 "},"ǻ":{"ha":910,"x_min":0,"x_max":0,"o":"m 449 1326 l 672 1326 l 533 1125 l 379 1125 m 457 760 b 286 921 363 760 286 832 b 457 1081 286 1008 363 1081 b 624 921 549 1081 624 1008 b 457 760 624 832 549 760 m 457 868 b 508 921 485 868 508 892 b 457 974 508 950 485 974 b 403 921 428 974 403 950 b 457 868 403 892 428 868 m 39 350 b 386 713 39 551 188 713 b 594 608 493 713 575 669 l 594 700 l 801 700 l 801 246 b 853 168 801 189 817 168 b 888 171 863 168 878 169 l 888 -1 b 794 -12 867 -8 828 -12 b 681 13 757 -12 715 -7 b 618 88 658 26 631 49 b 386 -14 578 28 508 -14 b 39 350 188 -14 39 146 m 246 350 b 424 175 246 251 324 175 b 607 350 525 175 607 251 b 424 525 607 449 525 525 b 246 350 324 525 246 449 "},"ą":{"ha":910,"x_min":0,"x_max":0,"o":"m 39 350 b 386 713 39 551 188 713 b 594 608 493 713 575 669 l 594 700 l 801 700 l 801 246 b 853 168 801 189 817 168 b 888 171 863 168 878 169 l 888 -1 b 743 -122 815 -19 743 -67 b 813 -171 743 -156 778 -171 b 893 -154 842 -171 868 -165 l 867 -283 b 788 -303 842 -296 814 -303 b 608 -151 697 -303 608 -246 b 714 -1 608 -83 654 -26 b 656 28 690 3 668 15 b 618 88 642 40 626 61 b 386 -14 578 28 508 -14 b 39 350 188 -14 39 146 m 246 350 b 424 175 246 251 324 175 b 607 350 525 175 607 251 b 424 525 607 449 525 525 b 246 350 324 525 246 449 "},"æ":{"ha":1428,"x_min":0,"x_max":0,"o":"m 39 350 b 386 713 39 551 188 713 b 608 608 500 713 588 669 l 608 700 l 801 700 l 801 615 b 1006 713 839 676 921 713 b 1361 354 1214 713 1361 556 b 1358 294 1361 354 1361 324 l 824 294 b 1008 165 829 215 899 165 b 1186 232 1079 165 1140 188 l 1308 114 b 999 -12 1218 24 1113 -12 b 801 75 917 -12 839 17 l 801 0 l 608 0 l 608 92 b 386 -12 588 32 500 -12 b 39 350 188 -12 39 147 m 246 350 b 424 175 246 251 324 175 b 607 350 525 175 607 251 b 424 525 607 449 525 525 b 246 350 324 525 246 449 m 1153 429 b 992 544 1144 494 1076 544 b 828 429 907 544 839 496 "},"ǽ":{"ha":1428,"x_min":0,"x_max":0,"o":"m 694 968 l 918 968 l 779 767 l 625 767 m 39 350 b 386 713 39 551 188 713 b 608 608 500 713 588 669 l 608 700 l 801 700 l 801 615 b 1006 713 839 676 921 713 b 1361 354 1214 713 1361 556 b 1358 294 1361 354 1361 324 l 824 294 b 1008 165 829 215 899 165 b 1186 232 1079 165 1140 188 l 1308 114 b 999 -12 1218 24 1113 -12 b 801 75 917 -12 839 17 l 801 0 l 608 0 l 608 92 b 386 -12 588 32 500 -12 b 39 350 188 -12 39 147 m 246 350 b 424 175 246 251 324 175 b 607 350 525 175 607 251 b 424 525 607 449 525 525 b 246 350 324 525 246 449 m 1153 429 b 992 544 1144 494 1076 544 b 828 429 907 544 839 496 "},"ć":{"ha":740,"x_min":0,"x_max":0,"o":"m 411 968 l 635 968 l 496 767 l 342 767 m 39 351 b 425 722 39 565 211 722 b 717 592 529 722 628 689 l 586 463 b 425 535 543 508 497 535 b 246 351 325 535 246 458 b 425 169 246 246 325 169 b 586 242 497 169 543 196 l 717 113 b 425 -18 628 15 529 -18 b 39 351 211 -18 39 138 "},"ĉ":{"ha":740,"x_min":0,"x_max":0,"o":"m 368 946 l 486 946 l 688 778 l 501 778 l 426 850 l 353 778 l 167 778 m 39 351 b 425 722 39 565 211 722 b 717 592 529 722 628 689 l 586 463 b 425 535 543 508 497 535 b 246 351 325 535 246 458 b 425 169 246 246 325 169 b 586 242 497 169 543 196 l 717 113 b 425 -18 628 15 529 -18 b 39 351 211 -18 39 138 "},"č":{"ha":740,"x_min":0,"x_max":0,"o":"m 163 968 l 350 968 l 424 896 l 497 968 l 685 968 l 483 800 l 364 800 m 39 351 b 425 722 39 565 211 722 b 717 592 529 722 628 689 l 586 463 b 425 535 543 508 497 535 b 246 351 325 535 246 458 b 425 169 246 246 325 169 b 586 242 497 169 543 196 l 717 113 b 425 -18 628 15 529 -18 b 39 351 211 -18 39 138 "},"ċ":{"ha":740,"x_min":0,"x_max":0,"o":"m 429 767 b 326 865 374 767 326 810 b 429 964 326 919 374 964 b 532 865 485 964 532 919 b 429 767 532 810 485 767 m 39 351 b 425 722 39 565 211 722 b 717 592 529 722 628 689 l 586 463 b 425 535 543 508 497 535 b 246 351 325 535 246 458 b 425 169 246 246 325 169 b 586 242 497 169 543 196 l 717 113 b 425 -18 628 15 529 -18 b 39 351 211 -18 39 138 "},"ç":{"ha":740,"x_min":0,"x_max":0,"o":"m 39 351 b 425 722 39 565 211 722 b 717 592 529 722 628 689 l 586 463 b 425 535 543 508 497 535 b 246 351 325 535 246 458 b 425 169 246 246 325 169 b 586 242 497 169 543 196 l 717 113 b 458 -17 638 25 550 -10 l 457 -17 l 438 -64 b 529 -167 488 -64 529 -103 b 361 -303 529 -257 463 -303 b 231 -265 311 -303 258 -285 l 272 -179 b 338 -199 294 -193 310 -199 b 389 -156 367 -199 389 -182 b 307 -106 389 -115 358 -106 l 346 -11 b 39 351 171 21 39 164 "},"ď":{"ha":1139,"x_min":0,"x_max":0,"o":"m 901 968 l 1124 968 l 986 767 l 831 767 m 39 350 b 386 713 39 551 188 713 b 594 608 493 713 575 669 l 594 968 l 801 968 l 801 246 b 853 168 801 189 817 168 b 888 171 863 168 878 169 l 888 -1 b 794 -12 867 -8 828 -12 b 681 13 757 -12 715 -7 b 618 88 658 26 631 49 b 386 -14 578 28 508 -14 b 39 350 188 -14 39 146 m 246 350 b 424 175 246 251 324 175 b 607 350 525 175 607 251 b 424 525 607 449 525 525 b 246 350 324 525 246 449 "},"đ":{"ha":910,"x_min":0,"x_max":0,"o":"m 39 350 b 386 713 39 551 188 713 b 594 608 493 713 575 669 l 594 757 l 394 757 l 394 901 l 594 901 l 594 968 l 801 968 l 801 901 l 854 901 l 854 757 l 801 757 l 801 246 b 853 168 801 189 817 168 b 888 171 863 168 878 169 l 888 -1 b 794 -12 867 -8 828 -12 b 681 13 757 -12 715 -7 b 618 88 658 26 631 49 b 386 -14 578 28 508 -14 b 39 350 188 -14 39 146 m 246 350 b 424 175 246 251 324 175 b 607 350 525 175 607 251 b 424 525 607 449 525 525 b 246 350 324 525 246 449 "},"è":{"ha":811,"x_min":0,"x_max":0,"o":"m 218 968 l 440 968 l 511 767 l 356 767 m 39 351 b 418 718 39 575 200 718 b 778 363 635 718 778 560 b 775 296 778 363 778 328 l 246 296 b 432 158 250 213 322 158 b 603 226 504 158 554 181 l 724 111 b 422 -17 631 15 529 -17 b 39 346 194 -17 39 126 m 569 431 b 418 547 569 494 501 547 b 249 431 328 547 254 496 "},"é":{"ha":811,"x_min":0,"x_max":0,"o":"m 390 968 l 614 968 l 475 767 l 321 767 m 39 351 b 418 718 39 575 200 718 b 778 363 635 718 778 560 b 775 296 778 363 778 328 l 246 296 b 432 158 250 213 322 158 b 603 226 504 158 554 181 l 724 111 b 422 -17 631 15 529 -17 b 39 346 194 -17 39 126 m 569 431 b 418 547 569 494 501 547 b 249 431 328 547 254 496 "},"ê":{"ha":811,"x_min":0,"x_max":0,"o":"m 371 946 l 489 946 l 690 778 l 504 778 l 429 850 l 356 778 l 169 778 m 39 351 b 418 718 39 575 200 718 b 778 363 635 718 778 560 b 775 296 778 363 778 328 l 246 296 b 432 158 250 213 322 158 b 603 226 504 158 554 181 l 724 111 b 422 -17 631 15 529 -17 b 39 346 194 -17 39 126 m 569 431 b 418 547 569 494 501 547 b 249 431 328 547 254 496 "},"ě":{"ha":811,"x_min":0,"x_max":0,"o":"m 169 968 l 357 968 l 431 896 l 504 968 l 692 968 l 490 800 l 371 800 m 39 351 b 418 718 39 575 200 718 b 778 363 635 718 778 560 b 775 296 778 363 778 328 l 246 296 b 432 158 250 213 322 158 b 603 226 504 158 554 181 l 724 111 b 422 -17 631 15 529 -17 b 39 346 194 -17 39 126 m 569 431 b 418 547 569 494 501 547 b 249 431 328 547 254 496 "},"ë":{"ha":811,"x_min":0,"x_max":0,"o":"m 563 771 b 463 867 508 771 463 814 b 563 964 463 921 508 964 b 664 867 618 964 664 922 b 563 771 664 814 618 771 m 274 771 b 172 867 218 771 172 814 b 274 964 172 921 218 964 b 374 867 328 964 374 922 b 274 771 374 814 328 771 m 39 351 b 418 718 39 575 200 718 b 778 363 635 718 778 560 b 775 296 778 363 778 328 l 246 296 b 432 158 250 213 322 158 b 603 226 504 158 554 181 l 724 111 b 422 -17 631 15 529 -17 b 39 346 194 -17 39 126 m 569 431 b 418 547 569 494 501 547 b 249 431 328 547 254 496 "},"ē":{"ha":811,"x_min":0,"x_max":0,"o":"m 199 926 l 639 926 l 639 793 l 199 793 m 39 351 b 418 718 39 575 200 718 b 778 363 635 718 778 560 b 775 296 778 363 778 328 l 246 296 b 432 158 250 213 322 158 b 603 226 504 158 554 181 l 724 111 b 422 -17 631 15 529 -17 b 39 346 194 -17 39 126 m 569 431 b 418 547 569 494 501 547 b 249 431 328 547 254 496 "},"ĕ":{"ha":811,"x_min":0,"x_max":0,"o":"m 424 769 b 179 969 281 769 194 865 l 326 969 b 424 904 340 931 372 904 b 521 969 475 904 507 931 l 669 969 b 424 769 654 865 567 769 m 39 351 b 418 718 39 575 200 718 b 778 363 635 718 778 560 b 775 296 778 363 778 328 l 246 296 b 432 158 250 213 322 158 b 603 226 504 158 554 181 l 724 111 b 422 -17 631 15 529 -17 b 39 346 194 -17 39 126 m 569 431 b 418 547 569 494 501 547 b 249 431 328 547 254 496 "},"ė":{"ha":811,"x_min":0,"x_max":0,"o":"m 424 771 b 321 869 368 771 321 815 b 424 968 321 924 368 968 b 526 869 479 968 526 924 b 424 771 526 815 479 771 m 39 351 b 418 718 39 575 200 718 b 778 363 635 718 778 560 b 775 296 778 363 778 328 l 246 296 b 432 158 250 213 322 158 b 603 226 504 158 554 181 l 724 111 b 422 -17 631 15 529 -17 b 39 346 194 -17 39 126 m 569 431 b 418 547 569 494 501 547 b 249 431 328 547 254 496 "},"ę":{"ha":811,"x_min":0,"x_max":0,"o":"m 39 351 b 418 718 39 575 200 718 b 778 363 635 718 778 560 b 775 296 778 363 778 328 l 246 296 b 432 158 250 213 322 158 b 603 226 504 158 554 181 l 724 111 b 639 44 704 92 672 64 b 489 -124 597 18 489 -54 b 557 -172 489 -157 524 -172 b 636 -156 586 -172 611 -165 l 608 -285 b 531 -304 585 -297 557 -304 b 354 -153 442 -304 354 -247 b 436 -15 354 -94 393 -47 b 422 -17 431 -17 424 -17 b 39 346 194 -17 39 126 m 249 431 l 569 431 b 418 547 569 494 501 547 b 249 431 328 547 254 496 "},"ĝ":{"ha":867,"x_min":0,"x_max":0,"o":"m 393 946 l 511 946 l 713 778 l 526 778 l 451 850 l 378 778 l 192 778 m 181 -57 b 396 -124 244 -97 314 -124 b 539 -87 453 -124 504 -111 b 600 65 593 -50 600 13 l 600 81 b 386 -4 571 32 490 -4 b 39 350 188 -4 39 151 b 386 713 39 551 188 713 b 594 608 493 713 575 669 l 594 700 l 801 700 l 801 117 b 679 -225 801 -28 782 -144 b 425 -306 615 -275 524 -306 b 82 -207 290 -306 178 -275 l 181 -57 m 246 350 b 424 178 246 253 324 178 b 607 350 525 178 607 253 b 424 525 607 449 525 525 b 246 350 324 525 246 449 "},"ğ":{"ha":867,"x_min":0,"x_max":0,"o":"m 444 769 b 200 969 301 769 215 865 l 347 969 b 444 904 361 931 393 904 b 542 969 496 904 528 931 l 690 969 b 444 769 675 865 588 769 m 181 -57 b 396 -124 244 -97 314 -124 b 539 -87 453 -124 504 -111 b 600 65 593 -50 600 13 l 600 81 b 386 -4 571 32 490 -4 b 39 350 188 -4 39 151 b 386 713 39 551 188 713 b 594 608 493 713 575 669 l 594 700 l 801 700 l 801 117 b 679 -225 801 -28 782 -144 b 425 -306 615 -275 524 -306 b 82 -207 290 -306 178 -275 l 181 -57 m 246 350 b 424 178 246 253 324 178 b 607 350 525 178 607 253 b 424 525 607 449 525 525 b 246 350 324 525 246 449 "},"ġ":{"ha":867,"x_min":0,"x_max":0,"o":"m 456 771 b 353 869 400 771 353 815 b 456 968 353 924 400 968 b 558 869 511 968 558 924 b 456 771 558 815 511 771 m 181 -57 b 396 -124 244 -97 314 -124 b 539 -87 453 -124 504 -111 b 600 65 593 -50 600 13 l 600 81 b 386 -4 571 32 490 -4 b 39 350 188 -4 39 151 b 386 713 39 551 188 713 b 594 608 493 713 575 669 l 594 700 l 801 700 l 801 117 b 679 -225 801 -28 782 -144 b 425 -306 615 -275 524 -306 b 82 -207 290 -306 178 -275 l 181 -57 m 246 350 b 424 178 246 253 324 178 b 607 350 525 178 607 253 b 424 525 607 449 525 525 b 246 350 324 525 246 449 "},"ģ":{"ha":867,"x_min":0,"x_max":0,"o":"m 432 968 l 654 968 l 517 767 l 361 767 m 181 -57 b 396 -124 244 -97 314 -124 b 539 -87 453 -124 504 -111 b 600 65 593 -50 600 13 l 600 81 b 386 -4 571 32 490 -4 b 39 350 188 -4 39 151 b 386 713 39 551 188 713 b 594 608 493 713 575 669 l 594 700 l 801 700 l 801 117 b 679 -225 801 -28 782 -144 b 425 -306 615 -275 524 -306 b 82 -207 290 -306 178 -275 l 181 -57 m 246 350 b 424 178 246 253 324 178 b 607 350 525 178 607 253 b 424 525 607 449 525 525 b 246 350 324 525 246 449 "},"ĥ":{"ha":826,"x_min":0,"x_max":0,"o":"m 113 1192 l 232 1192 l 433 1024 l 247 1024 l 172 1097 l 99 1024 l -89 1024 m 69 968 l 276 968 l 276 615 b 472 715 304 675 379 715 b 732 425 639 715 732 606 l 732 249 b 778 175 732 197 740 175 b 799 176 786 175 796 176 l 799 1 b 710 -8 794 0 764 -8 b 525 192 600 -8 525 44 l 525 400 b 406 532 525 481 483 532 b 276 393 331 532 276 475 l 276 0 l 69 0 "},"ħ":{"ha":835,"x_min":0,"x_max":0,"o":"m 78 757 l 24 757 l 24 901 l 78 901 l 78 968 l 285 968 l 285 901 l 483 901 l 483 757 l 285 757 l 285 615 b 481 715 313 675 388 715 b 740 425 647 715 740 606 l 740 249 b 786 175 740 197 749 175 b 807 176 794 175 804 176 l 807 1 b 718 -8 803 0 772 -8 b 533 192 608 -8 533 44 l 533 400 b 414 532 533 481 492 532 b 285 393 339 532 285 475 l 285 0 l 78 0 "},"ì":{"ha":374,"x_min":0,"x_max":0,"o":"m -25 968 l 199 968 l 263 767 l 108 767 m 69 700 l 276 700 l 276 246 b 324 172 276 196 288 172 b 349 175 332 172 346 174 l 349 -1 b 253 -12 342 -4 310 -12 b 69 185 142 -12 69 40 "},"í":{"ha":374,"x_min":0,"x_max":0,"o":"m 138 968 l 361 968 l 228 767 l 74 767 m 69 700 l 276 700 l 276 246 b 324 172 276 196 288 172 b 349 175 332 172 346 174 l 349 -1 b 253 -12 342 -4 310 -12 b 69 185 142 -12 69 40 "},"î":{"ha":403,"x_min":0,"x_max":0,"o":"m 144 946 l 264 946 l 435 778 l 258 778 l 204 857 l 149 778 l -26 778 m 99 700 l 306 700 l 306 246 b 353 172 306 196 317 172 b 378 175 361 172 375 174 l 378 -1 b 282 -12 371 -4 339 -12 b 99 185 171 -12 99 40 "},"ĩ":{"ha":407,"x_min":0,"x_max":0,"o":"m -37 808 b 118 983 -25 907 29 983 b 278 924 190 983 238 924 b 336 982 307 924 325 940 l 449 965 b 292 781 436 854 390 781 b 129 840 218 781 171 840 b 76 792 104 840 83 829 m 103 700 l 311 700 l 311 246 b 358 172 311 196 321 172 b 382 175 367 172 379 174 l 382 -1 b 286 -12 375 -4 343 -12 b 103 185 176 -12 103 40 "},"ï":{"ha":399,"x_min":0,"x_max":0,"o":"m 317 776 b 219 869 264 776 219 818 b 317 964 219 922 264 964 b 414 869 369 964 414 922 b 317 776 414 818 369 776 m 78 776 b -21 869 24 776 -21 818 b 78 964 -21 922 24 964 b 175 869 131 964 175 922 b 78 776 175 818 131 776 m 94 700 l 301 700 l 301 246 b 349 172 301 196 311 172 b 374 175 357 172 369 174 l 374 -1 b 276 -12 365 -4 333 -12 b 94 185 167 -12 94 40 "},"ī":{"ha":383,"x_min":0,"x_max":0,"o":"m -6 926 l 371 926 l 371 793 l -6 793 m 79 700 l 288 700 l 288 246 b 335 172 288 196 297 172 b 358 175 343 172 356 174 l 358 -1 b 263 -12 351 -4 319 -12 b 79 185 153 -12 79 40 "},"ĭ":{"ha":393,"x_min":0,"x_max":0,"o":"m 192 772 b -31 969 57 772 -19 867 l 117 969 b 192 907 125 933 149 907 b 268 969 236 907 260 933 l 415 969 b 192 772 404 867 328 772 m 89 700 l 296 700 l 296 246 b 343 172 296 196 307 172 b 368 175 353 172 365 174 l 368 -1 b 272 -12 361 -4 329 -12 b 89 185 161 -12 89 40 "},"į":{"ha":374,"x_min":0,"x_max":0,"o":"m 69 700 l 276 700 l 276 249 b 324 175 276 197 288 175 b 349 176 332 175 346 176 l 349 1 b 213 -114 272 -22 213 -72 b 282 -169 213 -154 247 -169 b 363 -154 311 -169 338 -164 l 335 -283 b 256 -303 310 -296 283 -303 b 78 -150 167 -303 78 -246 b 182 -1 78 -86 122 -31 b 69 186 113 19 69 75 m 172 758 b 54 876 108 758 54 810 b 172 993 54 942 108 993 b 290 876 238 993 290 942 b 172 758 290 810 238 758 "},"ĳ":{"ha":631,"x_min":0,"x_max":0,"o":"m 467 764 b 353 876 406 764 353 814 b 467 989 353 940 406 989 b 581 876 528 989 581 940 b 467 764 581 814 528 764 m 168 764 b 54 876 106 764 54 814 b 168 989 54 940 106 989 b 282 876 229 989 282 940 b 168 764 282 814 229 764 m 71 174 b 247 158 131 161 194 158 b 368 274 331 158 368 189 l 368 700 l 565 700 l 565 240 b 508 64 565 158 543 103 b 274 -18 449 -7 353 -18 b 71 1 194 -18 113 -10 m 69 700 l 267 700 l 267 242 l 69 242 "},"ı":{"ha":374,"x_min":0,"x_max":0,"o":"m 69 700 l 276 700 l 276 246 b 324 172 276 196 288 172 b 349 175 332 172 346 174 l 349 -1 b 253 -12 342 -4 310 -12 b 69 185 142 -12 69 40 "},"ĵ":{"ha":378,"x_min":0,"x_max":0,"o":"m 147 946 l 265 946 l 438 778 l 261 778 l 206 857 l 151 778 l -25 778 m 101 700 l 308 700 l 308 -51 b 64 -301 308 -269 168 -301 b -26 -296 31 -301 -7 -299 l -26 -115 b 18 -118 -11 -117 6 -118 b 101 -26 76 -118 101 -94 "},"ķ":{"ha":763,"x_min":0,"x_max":0,"o":"m 69 968 l 276 968 l 276 433 l 507 700 l 747 700 l 468 383 l 771 0 l 538 0 l 335 258 l 276 196 l 276 0 l 69 0 m 514 -67 l 376 -268 l 221 -268 l 292 -67 "},"ĺ":{"ha":426,"x_min":0,"x_max":0,"o":"m 138 1204 l 361 1204 l 222 1003 l 68 1003 m 65 968 l 272 968 l 272 260 b 353 169 272 196 296 169 b 403 175 368 169 388 171 l 403 -8 b 304 -18 382 -14 342 -18 b 65 228 206 -18 65 13 "},"ľ":{"ha":592,"x_min":0,"x_max":0,"o":"m 65 968 l 272 968 l 272 260 b 353 169 272 196 296 169 b 403 175 368 169 388 171 l 403 -8 b 304 -18 382 -14 342 -18 b 65 228 206 -18 65 13 m 376 968 l 600 968 l 461 767 l 307 767 "},"ļ":{"ha":426,"x_min":0,"x_max":0,"o":"m 65 968 l 272 968 l 272 260 b 353 169 272 196 296 169 b 403 175 368 169 388 171 l 403 -8 b 304 -18 382 -14 342 -18 b 65 228 206 -18 65 13 m 333 -67 l 194 -268 l 40 -268 l 110 -67 "},"ŀ":{"ha":568,"x_min":0,"x_max":0,"o":"m 65 968 l 272 968 l 272 260 b 353 169 272 196 296 169 b 403 175 368 169 388 171 l 403 -8 b 304 -18 382 -14 342 -18 b 65 228 206 -18 65 13 m 428 406 b 325 504 371 406 325 449 b 428 603 325 558 371 603 b 529 504 483 603 529 558 b 428 406 529 449 483 406 "},"ł":{"ha":465,"x_min":0,"x_max":0,"o":"m 100 358 l 6 307 l 6 503 l 100 554 l 100 968 l 307 968 l 307 654 l 429 721 l 429 526 l 307 457 l 307 260 b 388 169 307 196 331 169 b 438 175 403 169 422 171 l 438 -8 b 339 -18 417 -14 376 -18 b 100 228 240 -18 100 13 "},"ń":{"ha":839,"x_min":0,"x_max":0,"o":"m 388 968 l 611 968 l 472 767 l 317 767 m 69 700 l 276 700 l 276 613 b 478 715 306 674 382 715 b 743 425 649 715 743 606 l 743 249 b 789 175 743 197 753 175 b 811 176 797 175 808 176 l 811 1 b 721 -8 804 -1 775 -8 b 536 192 610 -8 536 44 l 536 400 b 411 532 536 481 493 532 b 276 393 333 532 276 475 l 276 0 l 69 0 "},"ň":{"ha":839,"x_min":0,"x_max":0,"o":"m 147 968 l 335 968 l 408 896 l 482 968 l 669 968 l 468 800 l 349 800 m 69 700 l 276 700 l 276 613 b 478 715 306 674 382 715 b 743 425 649 715 743 606 l 743 249 b 789 175 743 197 753 175 b 811 176 797 175 808 176 l 811 1 b 721 -8 804 -1 775 -8 b 536 192 610 -8 536 44 l 536 400 b 411 532 536 481 493 532 b 276 393 333 532 276 475 l 276 0 l 69 0 "},"ñ":{"ha":839,"x_min":0,"x_max":0,"o":"m 132 807 b 311 983 146 907 208 983 b 518 924 403 983 451 924 b 581 982 550 924 569 940 l 694 965 b 513 779 679 853 625 779 b 303 839 418 779 369 839 b 246 790 276 839 253 828 l 132 807 m 69 700 l 276 700 l 276 613 b 478 715 306 674 382 715 b 743 425 649 715 743 606 l 743 249 b 789 175 743 197 753 175 b 811 176 797 175 808 176 l 811 1 b 721 -8 804 -1 775 -8 b 536 192 610 -8 536 44 l 536 400 b 411 532 536 481 493 532 b 276 393 333 532 276 475 l 276 0 l 69 0 "},"ņ":{"ha":839,"x_min":0,"x_max":0,"o":"m 535 -67 l 397 -268 l 242 -268 l 313 -67 m 69 700 l 276 700 l 276 613 b 478 715 306 674 382 715 b 743 425 649 715 743 606 l 743 249 b 789 175 743 197 753 175 b 811 176 797 175 808 176 l 811 1 b 721 -8 804 -1 775 -8 b 536 192 610 -8 536 44 l 536 400 b 411 532 536 481 493 532 b 276 393 333 532 276 475 l 276 0 l 69 0 "},"ò":{"ha":856,"x_min":0,"x_max":0,"o":"m 224 968 l 447 968 l 517 767 l 363 767 m 39 350 b 428 721 39 557 211 721 b 817 350 643 721 817 557 b 428 -21 817 143 643 -21 b 39 350 211 -21 39 143 m 246 350 b 428 167 246 247 325 167 b 610 350 529 167 610 247 b 428 533 610 451 529 533 b 246 350 325 533 246 451 "},"ó":{"ha":856,"x_min":0,"x_max":0,"o":"m 414 968 l 638 968 l 499 767 l 344 767 m 39 350 b 428 721 39 557 211 721 b 817 350 643 721 817 557 b 428 -21 817 143 643 -21 b 39 350 211 -21 39 143 m 246 350 b 428 167 246 247 325 167 b 610 350 529 167 610 247 b 428 533 610 451 529 533 b 246 350 325 533 246 451 "},"ô":{"ha":856,"x_min":0,"x_max":0,"o":"m 369 946 l 488 946 l 689 778 l 503 778 l 428 850 l 354 778 l 168 778 m 39 350 b 428 721 39 557 211 721 b 817 350 643 721 817 557 b 428 -21 817 143 643 -21 b 39 350 211 -21 39 143 m 246 350 b 428 167 246 247 325 167 b 610 350 529 167 610 247 b 428 533 610 451 529 533 b 246 350 325 533 246 451 "},"õ":{"ha":856,"x_min":0,"x_max":0,"o":"m 143 807 b 324 983 158 907 221 983 b 531 924 415 983 464 924 b 592 982 563 924 582 940 l 707 965 b 524 779 692 853 638 779 b 315 839 431 779 382 839 b 258 790 288 839 265 828 l 143 807 m 39 350 b 428 721 39 557 211 721 b 817 350 643 721 817 557 b 428 -21 817 143 643 -21 b 39 350 211 -21 39 143 m 246 350 b 428 167 246 247 325 167 b 610 350 529 167 610 247 b 428 533 610 451 529 533 b 246 350 325 533 246 451 "},"ö":{"ha":856,"x_min":0,"x_max":0,"o":"m 571 771 b 471 867 517 771 471 814 b 571 964 471 921 517 964 b 672 867 626 964 672 922 b 571 771 672 814 626 771 m 282 771 b 181 867 226 771 181 814 b 282 964 181 921 226 964 b 382 867 336 964 382 922 b 282 771 382 814 336 771 m 39 350 b 428 721 39 557 211 721 b 817 350 643 721 817 557 b 428 -21 817 143 643 -21 b 39 350 211 -21 39 143 m 246 350 b 428 167 246 247 325 167 b 610 350 529 167 610 247 b 428 533 610 451 529 533 b 246 350 325 533 246 451 "},"ō":{"ha":856,"x_min":0,"x_max":0,"o":"m 208 926 l 649 926 l 649 793 l 208 793 m 39 350 b 428 721 39 557 211 721 b 817 350 643 721 817 557 b 428 -21 817 143 643 -21 b 39 350 211 -21 39 143 m 246 350 b 428 167 246 247 325 167 b 610 350 529 167 610 247 b 428 533 610 451 529 533 b 246 350 325 533 246 451 "},"ŏ":{"ha":856,"x_min":0,"x_max":0,"o":"m 428 769 b 182 969 285 769 197 865 l 331 969 b 428 904 344 931 376 904 b 525 969 479 904 511 931 l 672 969 b 428 769 657 865 571 769 m 39 350 b 428 721 39 557 211 721 b 817 350 643 721 817 557 b 428 -21 817 143 643 -21 b 39 350 211 -21 39 143 m 246 350 b 428 167 246 247 325 167 b 610 350 529 167 610 247 b 428 533 610 451 529 533 b 246 350 325 533 246 451 "},"ő":{"ha":856,"x_min":0,"x_max":0,"o":"m 564 968 l 775 968 l 611 767 l 467 767 m 311 968 l 522 968 l 358 767 l 214 767 m 39 350 b 428 721 39 557 211 721 b 817 350 643 721 817 557 b 428 -21 817 143 643 -21 b 39 350 211 -21 39 143 m 246 350 b 428 167 246 247 325 167 b 610 350 529 167 610 247 b 428 533 610 451 529 533 b 246 350 325 533 246 451 "},"ø":{"ha":856,"x_min":0,"x_max":0,"o":"m 144 93 b 39 350 79 160 39 249 b 428 721 39 557 211 721 b 589 688 485 721 540 708 l 647 765 l 764 678 l 708 606 b 817 350 775 539 817 450 b 428 -21 817 143 643 -21 b 265 13 369 -21 314 -8 l 201 -74 l 85 14 m 468 521 b 428 531 457 528 442 531 b 243 350 324 531 243 450 b 272 256 243 314 254 282 m 385 178 b 428 169 397 172 413 169 b 613 350 531 169 613 249 b 583 443 613 385 601 417 l 385 178 "},"ǿ":{"ha":856,"x_min":0,"x_max":0,"o":"m 429 968 l 653 968 l 514 767 l 360 767 m 144 93 b 39 350 79 160 39 249 b 428 721 39 557 211 721 b 589 688 485 721 540 708 l 647 765 l 764 678 l 708 606 b 817 350 775 539 817 450 b 428 -21 817 143 643 -21 b 265 13 369 -21 314 -8 l 201 -74 l 85 14 m 468 521 b 428 531 457 528 442 531 b 243 350 324 531 243 450 b 272 256 243 314 254 282 m 385 178 b 428 169 397 172 413 169 b 613 350 531 169 613 249 b 583 443 613 385 601 417 l 385 178 "},"œ":{"ha":1363,"x_min":0,"x_max":0,"o":"m 39 350 b 428 721 39 557 211 721 b 699 593 543 721 639 671 b 981 721 757 669 853 721 b 1336 354 1189 721 1336 560 b 1333 294 1336 354 1336 324 l 799 294 b 983 157 804 210 874 157 b 1161 224 1054 157 1115 179 l 1283 106 b 974 -21 1193 15 1088 -21 b 697 101 853 -21 756 21 b 428 -21 636 25 542 -21 b 39 350 211 -21 39 143 m 1128 429 b 967 553 1119 499 1051 553 b 803 429 882 553 814 500 m 246 350 b 428 167 246 247 325 167 b 610 350 529 167 610 247 b 428 533 610 451 529 533 b 246 350 325 533 246 451 "},"ŕ":{"ha":568,"x_min":0,"x_max":0,"o":"m 243 968 l 465 968 l 328 767 l 172 767 m 69 700 l 276 700 l 276 604 b 479 715 308 675 383 715 b 533 711 499 715 522 713 l 533 517 b 464 524 514 521 490 524 b 276 342 346 524 276 456 l 276 0 l 69 0 "},"ŗ":{"ha":568,"x_min":0,"x_max":0,"o":"m 69 700 l 276 700 l 276 604 b 479 715 308 675 383 715 b 533 711 499 715 522 713 l 533 517 b 464 524 514 521 490 524 b 276 342 346 524 276 456 l 276 0 l 69 0 m 292 -67 l 154 -268 l -1 -268 l 69 -67 "},"ř":{"ha":568,"x_min":0,"x_max":0,"o":"m 32 968 l 219 968 l 293 896 l 367 968 l 554 968 l 353 800 l 233 800 m 69 700 l 276 700 l 276 604 b 479 715 308 675 383 715 b 533 711 499 715 522 713 l 533 517 b 464 524 514 521 490 524 b 276 342 346 524 276 456 l 276 0 l 69 0 "},"ś":{"ha":658,"x_min":0,"x_max":0,"o":"m 297 968 l 519 968 l 382 767 l 226 767 m 135 233 b 326 157 172 189 244 157 b 432 214 400 157 432 181 b 229 301 432 261 336 265 b 68 496 132 335 68 390 b 340 721 68 646 199 721 b 581 631 457 721 532 678 l 482 494 b 335 546 454 519 408 546 b 265 501 288 546 265 525 b 457 415 265 454 322 463 b 629 217 583 372 629 306 b 321 -19 629 82 535 -19 b 15 106 164 -19 68 40 "},"ŝ":{"ha":658,"x_min":0,"x_max":0,"o":"m 286 946 l 404 946 l 606 778 l 419 778 l 344 850 l 271 778 l 85 778 m 135 233 b 326 157 172 189 244 157 b 432 214 400 157 432 181 b 229 301 432 261 336 265 b 68 496 132 335 68 390 b 340 721 68 646 199 721 b 581 631 457 721 532 678 l 482 494 b 335 546 454 519 408 546 b 265 501 288 546 265 525 b 457 415 265 454 322 463 b 629 217 583 372 629 306 b 321 -19 629 82 535 -19 b 15 106 164 -19 68 40 "},"š":{"ha":658,"x_min":0,"x_max":0,"o":"m 78 968 l 265 968 l 339 896 l 413 968 l 600 968 l 399 800 l 279 800 m 135 233 b 326 157 172 189 244 157 b 432 214 400 157 432 181 b 229 301 432 261 336 265 b 68 496 132 335 68 390 b 340 721 68 646 199 721 b 581 631 457 721 532 678 l 482 494 b 335 546 454 519 408 546 b 265 501 288 546 265 525 b 457 415 265 454 322 463 b 629 217 583 372 629 306 b 321 -19 629 82 535 -19 b 15 106 164 -19 68 40 "},"ș":{"ha":658,"x_min":0,"x_max":0,"o":"m 135 233 b 326 157 172 189 244 157 b 432 214 400 157 432 181 b 229 301 432 261 336 265 b 68 496 132 335 68 390 b 340 721 68 646 199 721 b 581 631 457 721 532 678 l 482 494 b 335 546 454 519 408 546 b 265 501 288 546 265 525 b 457 415 265 454 322 463 b 629 217 583 372 629 306 b 321 -19 629 82 535 -19 b 15 106 164 -19 68 40 m 424 -67 l 286 -268 l 131 -268 l 201 -67 "},"ş":{"ha":658,"x_min":0,"x_max":0,"o":"m 135 233 b 326 157 172 189 244 157 b 432 214 400 157 432 181 b 229 301 432 261 336 265 b 68 496 132 335 68 390 b 340 721 68 646 199 721 b 581 631 457 721 532 678 l 482 494 b 335 546 454 519 408 546 b 265 501 288 546 265 525 b 457 415 265 454 322 463 b 629 217 583 372 629 306 b 388 -15 629 96 554 3 l 365 -64 b 457 -167 415 -64 457 -103 b 289 -303 457 -257 390 -303 b 158 -265 239 -303 186 -285 l 200 -179 b 265 -199 222 -193 238 -199 b 317 -156 294 -199 317 -182 b 235 -106 317 -115 286 -106 l 271 -17 b 15 106 143 -6 63 47 "},"ß":{"ha":833,"x_min":0,"x_max":0,"o":"m 69 729 b 350 989 69 875 190 989 b 631 736 507 989 631 876 b 594 632 631 694 619 663 b 794 336 703 593 794 483 b 439 -18 794 138 646 -18 b 349 -11 410 -18 378 -17 l 349 178 b 419 169 371 171 396 169 b 590 336 514 169 590 243 b 419 499 590 425 514 499 b 349 489 396 499 371 494 l 349 626 b 439 718 407 633 439 667 b 358 801 439 763 404 801 b 276 713 311 801 276 761 l 276 0 l 69 0 "},"ť":{"ha":625,"x_min":0,"x_max":0,"o":"m 110 513 l 18 513 l 18 700 l 110 700 l 110 968 l 311 968 l 311 700 l 467 700 l 467 513 l 311 513 l 311 263 b 400 169 311 194 339 169 b 453 175 415 169 435 172 l 453 -8 b 351 -18 429 -14 390 -18 b 110 232 249 -18 110 13 m 424 968 l 647 968 l 508 767 l 354 767 "},"ţ":{"ha":488,"x_min":0,"x_max":0,"o":"m 110 513 l 18 513 l 18 700 l 110 700 l 110 968 l 311 968 l 311 700 l 467 700 l 467 513 l 311 513 l 311 263 b 400 169 311 194 339 169 b 453 175 415 169 435 172 l 453 -8 b 351 -18 429 -14 390 -18 b 110 232 249 -18 110 13 m 372 -67 l 233 -268 l 79 -268 l 149 -67 "},"ŧ":{"ha":492,"x_min":0,"x_max":0,"o":"m 110 307 l 21 307 l 21 471 l 110 471 l 110 525 l 24 525 l 24 700 l 110 700 l 110 968 l 311 968 l 311 700 l 463 700 l 463 525 l 311 525 l 311 471 l 460 471 l 460 307 l 313 307 l 313 243 b 400 169 318 189 347 169 b 453 175 415 169 435 172 l 453 -8 b 351 -18 429 -14 390 -18 b 110 232 249 -18 110 13 "},"ù":{"ha":835,"x_min":0,"x_max":0,"o":"m 199 968 l 422 968 l 492 767 l 338 767 m 63 700 l 269 700 l 269 300 b 390 168 269 219 311 168 b 519 307 465 168 519 225 l 519 700 l 726 700 l 726 246 b 778 168 726 189 742 168 b 813 171 788 168 803 169 l 813 -1 b 719 -12 792 -8 753 -12 b 606 13 682 -12 640 -7 b 543 88 583 26 556 49 b 338 -15 513 28 446 -15 b 63 275 161 -15 63 94 "},"ú":{"ha":835,"x_min":0,"x_max":0,"o":"m 374 968 l 597 968 l 458 767 l 303 767 m 63 700 l 269 700 l 269 300 b 390 168 269 219 311 168 b 519 307 465 168 519 225 l 519 700 l 726 700 l 726 246 b 778 168 726 189 742 168 b 813 171 788 168 803 169 l 813 -1 b 719 -12 792 -8 753 -12 b 606 13 682 -12 640 -7 b 543 88 583 26 556 49 b 338 -15 513 28 446 -15 b 63 275 161 -15 63 94 "},"û":{"ha":835,"x_min":0,"x_max":0,"o":"m 342 946 l 461 946 l 663 778 l 476 778 l 401 850 l 328 778 l 140 778 m 63 700 l 269 700 l 269 300 b 390 168 269 219 311 168 b 519 307 465 168 519 225 l 519 700 l 726 700 l 726 246 b 778 168 726 189 742 168 b 813 171 788 168 803 169 l 813 -1 b 719 -12 792 -8 753 -12 b 606 13 682 -12 640 -7 b 543 88 583 26 556 49 b 338 -15 513 28 446 -15 b 63 275 161 -15 63 94 "},"ũ":{"ha":835,"x_min":0,"x_max":0,"o":"m 119 807 b 299 983 133 907 196 983 b 506 924 390 983 439 924 b 567 982 538 924 557 940 l 682 965 b 499 779 667 853 613 779 b 290 839 406 779 357 839 b 233 790 263 839 240 828 l 119 807 m 63 700 l 269 700 l 269 300 b 390 168 269 219 311 168 b 519 307 465 168 519 225 l 519 700 l 726 700 l 726 246 b 778 168 726 189 742 168 b 813 171 788 168 803 169 l 813 -1 b 719 -12 792 -8 753 -12 b 606 13 682 -12 640 -7 b 543 88 583 26 556 49 b 338 -15 513 28 446 -15 b 63 275 161 -15 63 94 "},"ü":{"ha":835,"x_min":0,"x_max":0,"o":"m 546 771 b 446 867 492 771 446 814 b 546 964 446 921 492 964 b 647 867 601 964 647 922 b 546 771 647 814 601 771 m 256 771 b 156 867 201 771 156 814 b 256 964 156 921 201 964 b 357 867 311 964 357 922 b 256 771 357 814 311 771 m 63 700 l 269 700 l 269 300 b 390 168 269 219 311 168 b 519 307 465 168 519 225 l 519 700 l 726 700 l 726 246 b 778 168 726 189 742 168 b 813 171 788 168 803 169 l 813 -1 b 719 -12 792 -8 753 -12 b 606 13 682 -12 640 -7 b 543 88 583 26 556 49 b 338 -15 513 28 446 -15 b 63 275 161 -15 63 94 "},"ū":{"ha":835,"x_min":0,"x_max":0,"o":"m 181 926 l 621 926 l 621 793 l 181 793 m 63 700 l 269 700 l 269 300 b 390 168 269 219 311 168 b 519 307 465 168 519 225 l 519 700 l 726 700 l 726 246 b 778 168 726 189 742 168 b 813 171 788 168 803 169 l 813 -1 b 719 -12 792 -8 753 -12 b 606 13 682 -12 640 -7 b 543 88 583 26 556 49 b 338 -15 513 28 446 -15 b 63 275 161 -15 63 94 "},"ŭ":{"ha":835,"x_min":0,"x_max":0,"o":"m 401 769 b 156 969 258 769 171 865 l 304 969 b 401 904 318 931 350 904 b 499 969 453 904 485 931 l 646 969 b 401 769 631 865 544 769 m 63 700 l 269 700 l 269 300 b 390 168 269 219 311 168 b 519 307 465 168 519 225 l 519 700 l 726 700 l 726 246 b 778 168 726 189 742 168 b 813 171 788 168 803 169 l 813 -1 b 719 -12 792 -8 753 -12 b 606 13 682 -12 640 -7 b 543 88 583 26 556 49 b 338 -15 513 28 446 -15 b 63 275 161 -15 63 94 "},"ů":{"ha":835,"x_min":0,"x_max":0,"o":"m 401 743 b 231 903 307 743 231 815 b 401 1064 231 990 307 1064 b 569 903 493 1064 569 990 b 401 743 569 815 494 743 m 401 850 b 454 903 431 850 454 874 b 401 956 454 932 431 956 b 347 903 372 956 347 932 b 401 850 347 874 372 850 m 63 700 l 269 700 l 269 300 b 390 168 269 219 311 168 b 519 307 465 168 519 225 l 519 700 l 726 700 l 726 246 b 778 168 726 189 742 168 b 813 171 788 168 803 169 l 813 -1 b 719 -12 792 -8 753 -12 b 606 13 682 -12 640 -7 b 543 88 583 26 556 49 b 338 -15 513 28 446 -15 b 63 275 161 -15 63 94 "},"ű":{"ha":835,"x_min":0,"x_max":0,"o":"m 533 968 l 744 968 l 581 767 l 436 767 m 281 968 l 492 968 l 328 767 l 183 767 m 63 700 l 269 700 l 269 300 b 390 168 269 219 311 168 b 519 307 465 168 519 225 l 519 700 l 726 700 l 726 246 b 778 168 726 189 742 168 b 813 171 788 168 803 169 l 813 -1 b 719 -12 792 -8 753 -12 b 606 13 682 -12 640 -7 b 543 88 583 26 556 49 b 338 -15 513 28 446 -15 b 63 275 161 -15 63 94 "},"ų":{"ha":835,"x_min":0,"x_max":0,"o":"m 63 700 l 269 700 l 269 300 b 390 168 269 219 311 168 b 519 307 465 168 519 225 l 519 700 l 726 700 l 726 246 b 778 168 726 189 742 168 b 813 171 788 168 803 169 l 813 -1 b 668 -122 725 -31 668 -71 b 738 -171 668 -156 701 -171 b 818 -154 767 -171 792 -165 l 790 -283 b 711 -303 765 -296 738 -303 b 533 -151 621 -303 533 -246 b 660 -7 533 -89 576 -29 b 606 13 640 -3 622 3 b 543 88 583 26 556 49 b 338 -15 513 28 446 -15 b 63 275 161 -15 63 94 "},"ẁ":{"ha":1040,"x_min":0,"x_max":0,"o":"m 322 968 l 546 968 l 615 767 l 461 767 m 4 700 l 196 700 l 319 310 l 439 700 l 600 700 l 721 310 l 844 700 l 1036 700 l 814 0 l 643 0 l 519 400 l 397 0 l 225 0 "},"ẃ":{"ha":1040,"x_min":0,"x_max":0,"o":"m 492 968 l 714 968 l 576 767 l 421 767 m 4 700 l 196 700 l 319 310 l 439 700 l 600 700 l 721 310 l 844 700 l 1036 700 l 814 0 l 643 0 l 519 400 l 397 0 l 225 0 "},"ŵ":{"ha":1040,"x_min":0,"x_max":0,"o":"m 461 946 l 579 946 l 781 778 l 594 778 l 519 850 l 446 778 l 260 778 m 4 700 l 196 700 l 319 310 l 439 700 l 600 700 l 721 310 l 844 700 l 1036 700 l 814 0 l 643 0 l 519 400 l 397 0 l 225 0 "},"ẅ":{"ha":1040,"x_min":0,"x_max":0,"o":"m 665 771 b 564 867 610 771 564 814 b 665 964 564 921 610 964 b 765 867 719 964 765 922 b 665 771 765 814 719 771 m 375 771 b 275 867 319 771 275 814 b 375 964 275 921 319 964 b 475 867 431 964 475 922 b 375 771 475 814 431 771 m 4 700 l 196 700 l 319 310 l 439 700 l 600 700 l 721 310 l 844 700 l 1036 700 l 814 0 l 643 0 l 519 400 l 397 0 l 225 0 "},"ỳ":{"ha":808,"x_min":0,"x_max":0,"o":"m 217 968 l 440 968 l 511 767 l 356 767 m 125 -112 b 210 -124 150 -121 183 -124 b 269 -108 238 -124 254 -119 b 299 -64 282 -100 293 -83 l 310 -33 l 11 700 l 222 700 l 413 214 l 585 700 l 796 700 l 485 -111 b 404 -240 464 -164 440 -208 b 217 -301 356 -283 292 -301 b 125 -292 182 -301 150 -297 l 125 -112 "},"ý":{"ha":808,"x_min":0,"x_max":0,"o":"m 383 968 l 607 968 l 468 767 l 314 767 m 125 -112 b 210 -124 150 -121 183 -124 b 269 -108 238 -124 254 -119 b 299 -64 282 -100 293 -83 l 310 -33 l 11 700 l 222 700 l 413 214 l 585 700 l 796 700 l 485 -111 b 404 -240 464 -164 440 -208 b 217 -301 356 -283 292 -301 b 125 -292 182 -301 150 -297 l 125 -112 "},"ŷ":{"ha":808,"x_min":0,"x_max":0,"o":"m 354 946 l 472 946 l 674 778 l 488 778 l 413 850 l 339 778 l 153 778 m 125 -112 b 210 -124 150 -121 183 -124 b 269 -108 238 -124 254 -119 b 299 -64 282 -100 293 -83 l 310 -33 l 11 700 l 222 700 l 413 214 l 585 700 l 796 700 l 485 -111 b 404 -240 464 -164 440 -208 b 217 -301 356 -283 292 -301 b 125 -292 182 -301 150 -297 l 125 -112 "},"ÿ":{"ha":808,"x_min":0,"x_max":0,"o":"m 557 771 b 457 867 501 771 457 814 b 557 964 457 921 501 964 b 657 867 613 964 657 922 b 557 771 657 814 613 771 m 267 771 b 167 867 213 771 167 814 b 267 964 167 921 213 964 b 368 867 322 964 368 922 b 267 771 368 814 322 771 m 125 -112 b 210 -124 150 -121 183 -124 b 269 -108 238 -124 254 -119 b 299 -64 282 -100 293 -83 l 310 -33 l 11 700 l 222 700 l 413 214 l 585 700 l 796 700 l 485 -111 b 404 -240 464 -164 440 -208 b 217 -301 356 -283 292 -301 b 125 -292 182 -301 150 -297 l 125 -112 "},"ź":{"ha":742,"x_min":0,"x_max":0,"o":"m 358 968 l 582 968 l 443 767 l 289 767 m 24 131 l 401 518 l 61 518 l 61 700 l 689 700 l 689 554 l 333 182 l 703 182 l 703 0 l 24 0 "},"ž":{"ha":742,"x_min":0,"x_max":0,"o":"m 131 968 l 318 968 l 392 896 l 465 968 l 653 968 l 451 800 l 332 800 m 24 131 l 401 518 l 61 518 l 61 700 l 689 700 l 689 554 l 333 182 l 703 182 l 703 0 l 24 0 "},"ż":{"ha":742,"x_min":0,"x_max":0,"o":"m 397 771 b 294 869 340 771 294 815 b 397 968 294 924 340 968 b 499 869 453 968 499 924 b 397 771 499 815 453 771 m 24 131 l 401 518 l 61 518 l 61 700 l 689 700 l 689 554 l 333 182 l 703 182 l 703 0 l 24 0 "},"ŋ":{"ha":806,"x_min":0,"x_max":0,"o":"m 69 700 l 276 700 l 276 604 b 479 715 318 681 388 715 b 743 425 647 715 743 606 l 743 -42 b 672 -243 743 -143 715 -203 b 489 -301 619 -292 549 -301 b 388 -296 451 -301 410 -299 l 388 -115 b 444 -118 406 -117 426 -118 b 536 -15 508 -118 536 -87 l 536 397 b 411 532 536 479 492 532 b 276 392 335 532 276 475 l 276 0 l 69 0 "},"ð":{"ha":754,"x_min":0,"x_max":0,"o":"m 39 307 b 354 618 39 481 179 618 b 511 557 425 618 482 594 b 389 715 483 618 438 682 l 310 633 l 190 739 l 254 808 b 110 860 208 832 160 847 l 164 1024 b 374 940 236 1008 308 979 l 468 1040 l 588 932 l 504 844 b 690 556 592 767 657 669 b 717 379 708 492 717 432 b 368 -15 717 133 578 -15 b 39 307 186 -15 39 126 m 240 307 b 378 172 240 232 300 172 b 515 307 456 172 515 232 b 378 440 515 382 456 440 b 240 307 300 440 240 382 "},"þ":{"ha":869,"x_min":0,"x_max":0,"o":"m 69 968 l 276 968 l 276 608 b 485 713 296 668 378 713 b 832 350 683 713 832 553 b 485 -12 832 149 683 -12 b 276 92 378 -12 296 31 l 276 -268 l 69 -268 m 264 350 b 447 175 264 251 346 175 b 625 350 547 175 625 251 b 447 525 625 449 547 525 b 264 350 346 525 264 449 "},"ﬀ":{"ha":938,"x_min":0,"x_max":0,"o":"m 149 513 l 33 513 l 33 700 l 149 700 l 149 719 b 414 988 149 936 272 988 b 497 981 443 988 481 983 l 497 808 b 440 815 481 815 460 815 b 346 732 376 815 346 792 l 346 700 l 556 700 l 556 719 b 831 988 556 936 683 988 b 914 981 860 988 897 983 l 914 808 b 853 815 896 815 874 815 b 753 732 785 815 753 792 l 753 700 l 896 700 l 896 513 l 756 513 l 756 0 l 556 0 l 556 513 l 349 513 l 349 0 l 149 0 "},"ﬁ":{"ha":853,"x_min":0,"x_max":0,"o":"m 150 513 l 35 513 l 35 700 l 150 700 l 150 719 b 232 935 150 835 176 893 b 453 988 299 985 383 988 b 596 979 499 988 563 985 l 596 808 b 494 815 564 814 531 815 b 349 732 394 815 349 792 l 349 700 l 756 700 l 756 246 b 803 172 756 196 767 172 b 828 175 811 172 825 174 l 828 -1 b 732 -12 821 -4 789 -12 b 549 185 621 -12 549 40 l 549 513 l 350 513 l 350 0 l 150 0 "},"ﬂ":{"ha":949,"x_min":0,"x_max":0,"o":"m 149 513 l 33 513 l 33 700 l 149 700 l 149 719 b 231 936 149 835 176 893 b 424 988 289 985 363 988 b 507 981 453 988 490 983 l 507 808 b 444 815 489 815 465 815 b 349 732 379 815 349 792 l 349 700 l 489 700 l 489 513 l 349 513 l 349 0 l 149 0 m 588 968 l 794 968 l 794 260 b 875 169 794 196 818 169 b 925 175 890 169 910 171 l 925 -8 b 826 -18 904 -14 864 -18 b 588 228 728 -18 588 13 "},"ﬃ":{"ha":1250,"x_min":0,"x_max":0,"o":"m 149 513 l 33 513 l 33 700 l 149 700 l 149 719 b 414 988 149 936 272 988 b 497 981 443 988 481 983 l 497 808 b 440 815 481 815 460 815 b 346 732 376 815 346 792 l 346 700 l 556 700 l 556 719 b 638 935 556 835 582 893 b 858 988 704 985 789 988 b 1001 979 904 988 968 985 l 1001 808 b 900 815 969 814 936 815 b 754 732 800 815 754 792 l 754 700 l 1153 700 l 1153 246 b 1200 172 1153 196 1164 172 b 1225 175 1210 172 1222 174 l 1225 -1 b 1129 -12 1218 -4 1186 -12 b 946 185 1018 -12 946 40 l 946 513 l 756 513 l 756 0 l 556 0 l 556 513 l 349 513 l 349 0 l 149 0 "},"ﬄ":{"ha":1342,"x_min":0,"x_max":0,"o":"m 149 513 l 33 513 l 33 700 l 149 700 l 149 719 b 414 988 149 936 272 988 b 497 981 443 988 481 983 l 497 808 b 440 815 481 815 460 815 b 346 732 376 815 346 792 l 346 700 l 556 700 l 556 719 b 831 988 556 936 683 988 b 914 981 860 988 897 983 l 914 808 b 853 815 896 815 874 815 b 753 732 785 815 753 792 l 753 700 l 896 700 l 896 513 l 756 513 l 756 0 l 556 0 l 556 513 l 349 513 l 349 0 l 149 0 m 981 968 l 1188 968 l 1188 260 b 1268 169 1188 196 1211 169 b 1318 175 1283 169 1303 171 l 1318 -8 b 1219 -18 1297 -14 1257 -18 b 981 228 1121 -18 981 13 "},"¹":{"ha":333,"x_min":0,"x_max":0,"o":"m 124 835 l 36 835 l 36 968 l 264 968 l 264 456 l 124 456 "},"²":{"ha":465,"x_min":0,"x_max":0,"o":"m 33 560 l 257 749 b 286 799 275 764 286 779 b 238 853 286 831 265 853 b 182 786 207 853 182 824 l 49 786 b 236 978 49 893 133 978 b 419 807 338 978 419 903 b 365 689 419 761 404 728 l 258 590 l 435 590 l 435 456 l 33 456 "},"³":{"ha":468,"x_min":0,"x_max":0,"o":"m 208 447 b 13 549 121 447 50 489 l 125 625 b 207 581 146 596 171 581 b 282 636 247 581 282 600 b 206 692 282 668 253 692 b 135 676 182 692 154 688 l 96 746 l 224 835 l 58 835 l 58 968 l 400 968 l 400 868 l 293 786 b 313 783 300 786 307 786 b 431 635 388 763 431 701 b 208 447 431 533 349 447 "},"⁴":{"ha":486,"x_min":0,"x_max":0,"o":"m 300 543 l 26 543 l 26 643 l 188 968 l 329 968 l 175 665 l 300 665 l 300 764 l 435 764 l 435 454 l 300 454 "},"⁵":{"ha":450,"x_min":0,"x_max":0,"o":"m 215 447 b 10 556 125 447 49 492 l 121 625 b 197 581 133 600 165 581 b 265 639 233 581 265 601 b 194 697 265 675 233 697 b 140 682 175 697 153 693 l 44 708 l 90 968 l 376 968 l 376 835 l 201 835 l 192 785 b 246 790 203 789 226 790 b 415 626 339 790 415 718 b 215 447 415 528 326 447 "},"⁶":{"ha":481,"x_min":0,"x_max":0,"o":"m 239 447 b 32 636 124 447 32 532 b 106 808 32 696 64 744 l 208 968 l 372 968 l 265 813 b 278 813 265 813 272 813 b 447 638 369 813 447 735 b 239 447 447 532 354 447 m 239 574 b 303 638 274 574 303 603 b 239 700 303 671 274 700 b 174 638 203 700 174 671 b 239 574 174 603 203 574 "},"⁷":{"ha":461,"x_min":0,"x_max":0,"o":"m 271 835 l 44 835 l 44 968 l 432 968 l 432 863 l 224 456 l 72 456 "},"⁸":{"ha":479,"x_min":0,"x_max":0,"o":"m 240 447 b 35 625 124 447 35 528 b 104 750 35 675 63 724 b 71 822 83 767 71 790 b 240 978 71 908 146 978 b 410 822 335 978 410 908 b 376 750 410 790 397 767 b 446 625 418 724 446 675 b 240 447 446 528 357 447 m 240 775 b 283 817 265 775 283 793 b 240 858 283 840 265 858 b 197 817 215 858 197 840 b 240 775 197 793 215 775 m 240 574 b 301 632 275 574 301 600 b 240 690 301 664 275 690 b 179 632 206 690 179 664 b 240 574 179 600 206 574 "},"⁹":{"ha":482,"x_min":0,"x_max":0,"o":"m 214 613 b 203 611 214 613 207 611 b 35 789 114 611 35 689 b 243 978 35 892 128 978 b 447 790 354 978 447 894 b 375 618 447 731 418 682 l 267 456 l 104 456 m 243 725 b 308 788 282 725 308 753 b 243 850 308 822 279 850 b 179 788 207 850 179 822 b 243 725 179 753 207 725 "},"⁰":{"ha":503,"x_min":0,"x_max":0,"o":"m 251 446 b 51 607 147 446 63 515 b 50 713 50 631 50 654 b 51 817 50 771 50 794 b 251 978 63 910 147 978 b 451 817 356 978 440 910 b 453 713 453 794 453 771 b 451 607 453 654 453 631 b 251 446 440 515 356 446 m 251 574 b 306 624 279 574 303 593 b 307 713 307 639 307 665 b 306 797 307 760 307 781 b 251 847 303 826 279 847 b 197 797 224 847 200 826 b 196 713 196 781 196 760 b 197 624 196 665 196 639 b 251 574 200 593 224 574 "},"₁":{"ha":333,"x_min":0,"x_max":0,"o":"m 124 379 l 36 379 l 36 513 l 264 513 l 264 0 l 124 0 "},"₂":{"ha":465,"x_min":0,"x_max":0,"o":"m 33 104 l 257 293 b 286 343 275 308 286 324 b 238 397 286 375 265 397 b 182 331 207 397 182 368 l 49 331 b 236 522 49 438 133 522 b 419 351 338 522 419 447 b 365 233 419 306 404 272 l 258 135 l 435 135 l 435 0 l 33 0 "},"₃":{"ha":468,"x_min":0,"x_max":0,"o":"m 125 169 b 207 125 146 140 171 125 b 282 181 247 125 282 144 b 206 236 282 213 253 236 b 135 221 182 236 154 232 l 96 290 l 224 379 l 58 379 l 58 513 l 400 513 l 400 413 l 293 331 b 313 328 300 331 307 331 b 431 179 388 307 431 246 b 208 -8 431 78 349 -8 b 13 93 121 -8 50 33 "},"₄":{"ha":486,"x_min":0,"x_max":0,"o":"m 26 189 l 188 514 l 329 514 l 175 210 l 300 210 l 300 310 l 435 310 l 435 0 l 300 0 l 300 88 l 26 88 "},"₅":{"ha":450,"x_min":0,"x_max":0,"o":"m 121 169 b 197 125 133 144 165 125 b 265 183 233 125 265 146 b 194 242 265 219 233 242 b 140 226 175 242 153 238 l 44 253 l 90 513 l 376 513 l 376 379 l 201 379 l 192 329 b 246 335 203 333 226 335 b 415 171 339 335 415 263 b 215 -8 415 72 326 -8 b 10 100 125 -8 49 36 "},"₆":{"ha":481,"x_min":0,"x_max":0,"o":"m 32 181 b 106 353 32 240 64 289 l 208 513 l 372 513 l 265 357 b 278 357 265 357 272 357 b 447 182 369 357 447 279 b 239 -8 447 76 354 -8 b 32 181 124 -8 32 76 m 174 182 b 239 118 174 147 203 118 b 303 182 274 118 303 147 b 239 244 303 215 274 244 b 174 182 203 244 174 215 "},"₇":{"ha":461,"x_min":0,"x_max":0,"o":"m 271 379 l 44 379 l 44 513 l 432 513 l 432 407 l 224 0 l 72 0 "},"₈":{"ha":481,"x_min":0,"x_max":0,"o":"m 35 169 b 104 294 35 219 63 268 b 71 367 83 311 71 335 b 240 522 71 453 146 522 b 410 367 335 522 410 453 b 376 294 410 335 397 311 b 446 169 418 268 446 219 b 240 -8 446 72 357 -8 b 35 169 124 -8 35 72 m 240 319 b 283 361 265 319 283 338 b 240 403 283 385 265 403 b 197 361 215 403 197 385 b 240 319 197 338 215 319 m 179 176 b 240 118 179 144 206 118 b 301 176 275 118 301 144 b 240 235 301 208 275 235 b 179 176 206 235 179 208 "},"₉":{"ha":476,"x_min":0,"x_max":0,"o":"m 211 157 b 200 156 211 157 204 156 b 32 333 111 156 32 233 b 240 522 32 436 125 522 b 444 335 351 522 444 439 b 372 163 444 275 415 226 l 264 0 l 101 0 m 240 269 b 306 332 279 269 306 297 b 240 394 306 367 276 394 b 176 332 204 394 176 367 b 240 269 176 297 204 269 "},"₀":{"ha":503,"x_min":0,"x_max":0,"o":"m 51 151 b 50 257 50 175 50 199 b 51 361 50 315 50 339 b 251 522 63 454 147 522 b 451 361 356 522 440 454 b 453 257 453 339 453 315 b 451 151 453 199 453 175 b 251 -10 440 60 356 -10 b 51 151 147 -10 63 60 m 197 168 b 251 118 200 138 224 118 b 306 168 279 118 303 138 b 307 257 307 183 307 210 b 306 342 307 304 307 325 b 251 392 303 371 279 392 b 197 342 224 392 200 371 b 196 257 196 325 196 304 b 197 168 196 210 196 183 "},"½":{"ha":1017,"x_min":0,"x_max":0,"o":"m 686 968 l 872 968 l 240 0 l 54 0 m 133 835 l 46 835 l 46 968 l 274 968 l 274 456 l 133 456 m 576 104 l 800 293 b 829 343 818 308 829 324 b 781 397 829 375 808 397 b 725 331 750 397 725 368 l 592 331 b 779 522 592 438 676 522 b 963 351 881 522 963 447 b 908 233 963 306 947 272 l 801 135 l 978 135 l 978 0 l 576 0 "},"⅓":{"ha":1071,"x_min":0,"x_max":0,"o":"m 690 968 l 876 968 l 244 0 l 57 0 m 133 835 l 46 835 l 46 968 l 274 968 l 274 456 l 133 456 m 722 169 b 804 125 743 140 768 125 b 879 181 844 125 879 144 b 803 236 879 213 850 236 b 732 221 779 236 751 232 l 693 290 l 821 379 l 656 379 l 656 513 l 997 513 l 997 413 l 890 331 b 910 328 897 331 904 331 b 1028 179 985 307 1028 246 b 806 -8 1028 78 946 -8 b 610 93 718 -8 647 33 "},"⅔":{"ha":1196,"x_min":0,"x_max":0,"o":"m 824 968 l 1011 968 l 378 0 l 192 0 m 42 560 l 265 749 b 294 799 283 764 294 779 b 246 853 294 831 274 853 b 190 786 215 853 190 824 l 57 786 b 244 978 57 893 142 978 b 428 807 346 978 428 903 b 374 689 428 761 413 728 l 267 590 l 443 590 l 443 456 l 42 456 m 847 169 b 929 125 868 140 893 125 b 1004 181 969 125 1004 144 b 928 236 1004 213 975 236 b 857 221 904 236 876 232 l 818 290 l 946 379 l 781 379 l 781 513 l 1122 513 l 1122 413 l 1015 331 b 1035 328 1022 331 1029 331 b 1153 179 1110 307 1153 246 b 931 -8 1153 78 1071 -8 b 735 93 843 -8 772 33 "},"¼":{"ha":1022,"x_min":0,"x_max":0,"o":"m 704 968 l 890 968 l 258 0 l 72 0 m 133 835 l 46 835 l 46 968 l 274 968 l 274 456 l 133 456 m 553 189 l 714 514 l 856 514 l 701 210 l 826 210 l 826 310 l 961 310 l 961 0 l 826 0 l 826 88 l 553 88 "},"¾":{"ha":1079,"x_min":0,"x_max":0,"o":"m 769 968 l 957 968 l 325 0 l 138 0 m 213 447 b 17 549 125 447 54 489 l 129 625 b 211 581 150 596 175 581 b 286 636 251 581 286 600 b 210 692 286 668 257 692 b 139 676 186 692 158 688 l 100 746 l 228 835 l 63 835 l 63 968 l 404 968 l 404 868 l 297 786 b 317 783 304 786 311 786 b 435 635 392 763 435 701 b 213 447 435 533 353 447 m 610 189 l 771 514 l 913 514 l 758 210 l 883 210 l 883 310 l 1018 310 l 1018 0 l 883 0 l 883 88 l 610 88 "},".":{"ha":297,"x_min":0,"x_max":0,"o":"m 35 100 b 149 213 35 163 88 213 b 263 100 210 213 263 163 b 149 -12 263 38 210 -12 b 35 100 88 -12 35 38 "},",":{"ha":336,"x_min":0,"x_max":0,"o":"m 85 154 l 290 154 l 115 -178 l -37 -178 "},":":{"ha":315,"x_min":0,"x_max":0,"o":"m 158 424 b 44 538 96 424 44 474 b 158 650 44 600 96 650 b 272 538 219 650 272 600 b 158 424 272 474 219 424 m 158 54 b 44 167 96 54 44 104 b 158 279 44 229 96 279 b 272 167 219 279 272 229 b 158 54 272 104 219 54 "},";":{"ha":353,"x_min":0,"x_max":0,"o":"m 181 422 b 67 535 118 422 67 472 b 181 647 67 599 118 647 b 294 535 242 647 294 599 b 181 422 294 472 242 422 m 85 154 l 290 154 l 115 -178 l -37 -178 "},"•":{"ha":500,"x_min":0,"x_max":0,"o":"m 250 185 b 85 350 161 185 85 260 b 250 515 85 443 161 515 b 415 350 339 515 415 443 b 250 185 415 257 342 185 "},"·":{"ha":299,"x_min":0,"x_max":0,"o":"m 149 238 b 35 351 88 238 35 288 b 149 464 35 414 88 464 b 263 351 210 464 263 414 b 149 238 263 288 210 238 "},"…":{"ha":901,"x_min":0,"x_max":0,"o":"m 639 100 b 753 213 639 163 690 213 b 867 100 814 213 867 163 b 753 -12 867 38 814 -12 b 639 100 690 -12 639 38 m 336 100 b 450 213 336 163 389 213 b 564 100 513 213 564 163 b 450 -12 564 38 513 -12 b 336 100 389 -12 336 38 m 35 100 b 149 213 35 163 88 213 b 263 100 210 213 263 163 b 149 -12 263 38 210 -12 b 35 100 88 -12 35 38 "},"‚":{"ha":335,"x_min":0,"x_max":0,"o":"m 85 154 l 290 154 l 115 -178 l -37 -178 "},"„":{"ha":592,"x_min":0,"x_max":0,"o":"m 340 154 l 546 154 l 371 -178 l 218 -178 m 85 154 l 290 154 l 115 -178 l -37 -178 "},"”":{"ha":618,"x_min":0,"x_max":0,"o":"m 400 968 l 606 968 l 428 631 l 276 631 m 143 968 l 349 968 l 171 631 l 19 631 "},"\"":{"ha":550,"x_min":0,"x_max":0,"o":"m 311 968 l 501 968 l 475 618 l 338 618 m 49 968 l 239 968 l 211 618 l 75 618 "},"’":{"ha":363,"x_min":0,"x_max":0,"o":"m 143 968 l 349 968 l 171 631 l 19 631 "},"‘":{"ha":358,"x_min":0,"x_max":0,"o":"m 200 968 l 353 968 l 228 631 l 22 631 "},"“":{"ha":614,"x_min":0,"x_max":0,"o":"m 456 968 l 608 968 l 483 631 l 279 631 m 200 968 l 353 968 l 228 631 l 22 631 "},"'":{"ha":288,"x_min":0,"x_max":0,"o":"m 49 968 l 239 968 l 211 618 l 75 618 "},"*":{"ha":518,"x_min":0,"x_max":0,"o":"m 76 622 l 174 729 l 33 761 l 75 888 l 206 825 l 189 968 l 328 968 l 313 826 l 443 888 l 485 761 l 346 729 l 443 622 l 331 542 l 258 664 l 186 542 "},"†":{"ha":436,"x_min":0,"x_max":0,"o":"m 153 722 l 40 718 l 40 856 l 150 851 l 146 968 l 290 968 l 286 851 l 396 856 l 396 718 l 283 722 l 290 418 l 146 418 "},"‡":{"ha":436,"x_min":0,"x_max":0,"o":"m 150 531 l 40 526 l 40 660 l 153 656 l 153 731 l 40 726 l 40 860 l 150 856 l 146 968 l 290 968 l 286 856 l 396 860 l 396 726 l 283 731 l 283 656 l 396 660 l 396 526 l 286 531 l 290 418 l 146 418 "},"-":{"ha":606,"x_min":0,"x_max":0,"o":"m 54 482 l 551 482 l 551 293 l 54 293 "},"–":{"ha":757,"x_min":0,"x_max":0,"o":"m 53 482 l 704 482 l 704 293 l 53 293 "},"—":{"ha":1017,"x_min":0,"x_max":0,"o":"m 53 482 l 964 482 l 964 293 l 53 293 "},"_":{"ha":586,"x_min":0,"x_max":0,"o":"m 589 -83 l 589 -243 l -3 -243 l -3 -83 "},"|":{"ha":390,"x_min":0,"x_max":0,"o":"m 96 1006 l 293 1006 l 293 -37 l 96 -37 "},"¦":{"ha":390,"x_min":0,"x_max":0,"o":"m 96 968 l 293 968 l 293 576 l 96 576 m 96 408 l 293 408 l 293 0 l 96 0 "},"+":{"ha":728,"x_min":0,"x_max":0,"o":"m 265 394 l 60 394 l 60 574 l 265 574 l 265 792 l 463 792 l 463 574 l 668 574 l 668 394 l 463 394 l 463 178 l 265 178 "},"−":{"ha":728,"x_min":0,"x_max":0,"o":"m 60 574 l 668 574 l 668 394 l 60 394 "},"±":{"ha":738,"x_min":0,"x_max":0,"o":"m 269 486 l 64 486 l 64 664 l 269 664 l 269 883 l 468 883 l 468 664 l 674 664 l 674 486 l 468 486 l 468 268 l 269 268 m 64 178 l 674 178 l 674 0 l 64 0 "},"×":{"ha":649,"x_min":0,"x_max":0,"o":"m 53 317 l 199 464 l 53 610 l 176 735 l 324 588 l 471 735 l 596 610 l 450 464 l 596 317 l 471 192 l 324 339 l 176 192 "},"÷":{"ha":746,"x_min":0,"x_max":0,"o":"m 374 625 b 260 738 311 625 260 675 b 374 851 260 801 311 851 b 488 738 435 851 488 801 b 374 625 488 675 435 625 m 60 574 l 688 574 l 688 394 l 60 394 m 374 117 b 260 231 311 117 260 167 b 374 343 260 293 311 343 b 488 231 435 343 488 293 b 374 117 488 167 435 117 "},"=":{"ha":756,"x_min":0,"x_max":0,"o":"m 64 726 l 692 726 l 692 549 l 64 549 m 64 424 l 692 424 l 692 246 l 64 246 "},"≠":{"ha":799,"x_min":0,"x_max":0,"o":"m 165 256 l 64 256 l 64 433 l 272 433 l 336 539 l 64 539 l 64 717 l 444 717 l 554 900 l 692 817 l 632 717 l 735 717 l 735 539 l 525 539 l 461 433 l 735 433 l 735 256 l 354 256 l 243 68 l 104 153 "},"#":{"ha":906,"x_min":0,"x_max":0,"o":"m 163 243 l 42 243 l 42 418 l 206 418 l 236 539 l 115 539 l 115 714 l 279 714 l 311 842 l 482 842 l 450 714 l 578 714 l 610 842 l 781 842 l 749 714 l 867 714 l 867 539 l 706 539 l 675 418 l 793 418 l 793 243 l 632 243 l 599 111 l 428 111 l 461 243 l 333 243 l 300 111 l 129 111 m 503 418 l 535 539 l 407 539 l 376 418 "},"¤":{"ha":926,"x_min":0,"x_max":0,"o":"m 174 285 b 119 463 139 336 119 397 b 174 640 119 528 139 589 l 51 750 l 178 876 l 290 747 b 464 794 340 778 400 794 b 638 747 526 794 586 778 l 750 876 l 876 750 l 754 642 b 808 463 789 589 808 528 b 754 285 808 397 789 336 b 876 175 769 269 876 175 l 750 50 b 636 176 750 50 650 160 b 464 131 586 147 526 131 b 289 176 400 131 340 147 b 178 50 276 161 178 50 l 51 175 m 464 306 b 619 463 550 306 619 376 b 464 619 619 549 550 619 b 308 463 378 619 308 549 b 464 306 308 376 378 306 "},"¬":{"ha":878,"x_min":0,"x_max":0,"o":"m 63 715 l 814 715 l 814 286 l 617 286 l 617 538 l 63 538 "},"<":{"ha":647,"x_min":0,"x_max":0,"o":"m 51 568 l 579 868 l 579 656 l 283 494 l 579 333 l 579 121 l 51 421 "},">":{"ha":646,"x_min":0,"x_max":0,"o":"m 68 333 l 364 494 l 68 656 l 68 868 l 594 568 l 594 421 l 68 121 "},"≤":{"ha":628,"x_min":0,"x_max":0,"o":"m 64 638 l 560 908 l 560 696 l 303 564 l 560 433 l 560 221 l 64 490 m 53 178 l 560 178 l 560 0 l 53 0 "},"≥":{"ha":628,"x_min":0,"x_max":0,"o":"m 68 433 l 325 564 l 68 696 l 68 908 l 564 638 l 564 490 l 68 221 m 68 178 l 575 178 l 575 0 l 68 0 "},"^":{"ha":738,"x_min":0,"x_max":0,"o":"m 292 968 l 446 968 l 722 486 l 521 486 l 368 765 l 215 486 l 15 486 "},"~":{"ha":650,"x_min":0,"x_max":0,"o":"m 35 404 b 219 604 50 519 114 604 b 435 546 315 604 365 546 b 501 603 468 546 489 561 l 615 586 b 428 378 600 460 544 378 b 211 436 331 378 281 436 b 150 388 182 436 157 425 l 35 404 "},"≈":{"ha":663,"x_min":0,"x_max":0,"o":"m 40 550 b 224 749 54 664 118 749 b 439 690 319 749 369 690 b 506 749 472 690 493 706 l 619 731 b 433 522 604 604 549 522 b 215 582 335 522 285 582 b 154 533 186 582 163 571 l 40 550 m 43 271 b 226 471 57 386 121 471 b 442 413 322 471 372 413 b 508 469 475 413 496 428 l 622 453 b 436 244 607 326 551 244 b 218 303 338 244 288 303 b 157 254 189 303 165 292 l 43 271 "},"‹":{"ha":465,"x_min":0,"x_max":0,"o":"m 43 351 l 211 611 l 425 611 l 253 351 l 425 92 l 211 92 "},"›":{"ha":465,"x_min":0,"x_max":0,"o":"m 213 351 l 42 611 l 256 611 l 422 351 l 256 92 l 42 92 "},"«":{"ha":790,"x_min":0,"x_max":0,"o":"m 368 351 l 536 611 l 750 611 l 578 351 l 750 92 l 536 92 m 43 351 l 211 611 l 425 611 l 253 351 l 425 92 l 211 92 "},"»":{"ha":790,"x_min":0,"x_max":0,"o":"m 538 351 l 367 611 l 581 611 l 747 351 l 581 92 l 367 92 m 213 351 l 42 611 l 256 611 l 422 351 l 256 92 l 42 92 "},"/":{"ha":631,"x_min":0,"x_max":0,"o":"m 424 1004 l 610 1004 l 154 -189 l -31 -189 "},"\\":{"ha":631,"x_min":0,"x_max":0,"o":"m 15 1004 l 201 1004 l 656 -189 l 471 -189 "},"(":{"ha":454,"x_min":0,"x_max":0,"o":"m 51 429 b 371 1094 51 683 163 913 l 464 993 b 236 429 319 836 236 669 b 464 -139 236 179 319 19 l 371 -239 b 51 429 157 -60 51 174 "},")":{"ha":454,"x_min":0,"x_max":0,"o":"m -10 -139 b 218 429 133 19 218 179 b -10 993 218 669 133 836 l 83 1094 b 401 429 290 913 401 683 b 83 -239 401 174 296 -60 l -10 -139 "},"[":{"ha":522,"x_min":0,"x_max":0,"o":"m 517 -143 l 517 -322 l 90 -322 l 90 968 l 517 968 l 517 789 l 289 789 l 289 -143 "},"]":{"ha":522,"x_min":0,"x_max":0,"o":"m 233 -143 l 233 789 l 6 789 l 6 968 l 432 968 l 432 -322 l 6 -322 l 6 -143 "},"{":{"ha":510,"x_min":0,"x_max":0,"o":"m 150 190 b 94 294 150 240 132 276 b 32 311 64 310 32 311 l 32 410 b 94 426 32 410 64 411 b 150 531 132 444 150 481 l 150 790 b 317 968 150 893 219 968 l 458 968 l 458 801 l 410 801 b 340 729 357 801 340 764 l 340 540 b 279 397 340 490 329 433 b 206 360 257 382 235 369 b 279 324 235 351 257 339 b 340 181 329 288 340 231 l 340 -8 b 410 -81 340 -43 357 -81 l 458 -81 l 458 -247 l 317 -247 b 150 -69 219 -247 150 -172 "},"}":{"ha":510,"x_min":0,"x_max":0,"o":"m 100 -81 b 169 -8 153 -81 169 -43 l 169 181 b 231 324 169 231 181 288 b 304 360 253 339 275 351 b 231 397 275 369 253 382 b 169 540 181 433 169 490 l 169 729 b 100 801 169 764 153 801 l 51 801 l 51 968 l 193 968 b 360 790 290 968 360 893 l 360 531 b 415 426 360 481 378 444 b 478 410 446 411 478 410 l 478 311 b 415 294 478 311 446 310 b 360 190 378 276 360 240 l 360 -69 b 193 -247 360 -172 290 -247 l 51 -247 l 51 -81 "},"⁄":{"ha":817,"x_min":0,"x_max":0,"o":"m 644 968 l 832 968 l 174 0 l -15 0 "},"%":{"ha":1058,"x_min":0,"x_max":0,"o":"m 257 557 b 36 771 135 557 36 651 b 257 985 36 890 135 985 b 478 771 379 985 478 890 b 257 557 478 651 379 557 m 764 968 l 953 968 l 293 0 l 104 0 m 257 697 b 325 771 294 697 325 729 b 257 844 325 811 294 844 b 189 771 218 844 189 811 b 257 697 189 729 218 697 m 581 197 b 803 411 581 317 681 411 b 1022 197 925 411 1022 317 b 803 -17 1022 78 925 -17 b 581 197 681 -17 581 78 m 733 197 b 803 124 733 156 763 124 b 871 197 840 124 871 156 b 803 271 871 238 840 271 b 733 197 763 271 733 238 "},"‰":{"ha":1579,"x_min":0,"x_max":0,"o":"m 257 557 b 36 771 135 557 36 651 b 257 985 36 890 135 985 b 478 771 379 985 478 890 b 257 557 478 651 379 557 m 764 968 l 953 968 l 293 0 l 104 0 m 257 697 b 325 771 294 697 325 729 b 257 844 325 811 294 844 b 189 771 218 844 189 811 b 257 697 189 729 218 697 m 1103 197 b 1324 411 1103 317 1201 411 b 1544 197 1446 411 1544 317 b 1324 -17 1544 78 1446 -17 b 1103 197 1201 -17 1103 78 m 581 197 b 803 411 581 317 681 411 b 1022 197 925 411 1022 317 b 803 -17 1022 78 925 -17 b 581 197 681 -17 581 78 m 1256 197 b 1324 124 1256 156 1285 124 b 1392 197 1361 124 1392 156 b 1324 271 1392 238 1361 271 b 1256 197 1285 271 1256 238 m 733 197 b 803 124 733 156 763 124 b 871 197 840 124 871 156 b 803 271 871 238 840 271 b 733 197 763 271 733 238 "},"°":{"ha":579,"x_min":0,"x_max":0,"o":"m 290 519 b 53 747 158 519 53 621 b 290 974 53 871 158 974 b 526 747 421 974 526 871 b 290 519 526 621 421 519 m 290 657 b 378 747 339 657 378 699 b 290 835 378 794 339 835 b 201 747 240 835 201 794 b 290 657 201 699 240 657 "},"´":{"ha":721,"x_min":0,"x_max":0,"o":"m 314 968 l 538 968 l 399 767 l 244 767 "},"`":{"ha":721,"x_min":0,"x_max":0,"o":"m 181 968 l 404 968 l 474 767 l 319 767 "},"ˆ":{"ha":753,"x_min":0,"x_max":0,"o":"m 311 946 l 442 946 l 642 778 l 456 778 l 376 854 l 299 778 l 113 778 "},"ˇ":{"ha":753,"x_min":0,"x_max":0,"o":"m 111 975 l 297 975 l 375 899 l 454 975 l 640 975 l 442 807 l 311 807 "},"˜":{"ha":740,"x_min":0,"x_max":0,"o":"m 89 817 b 268 993 103 917 165 993 b 475 933 360 993 408 933 b 538 992 507 933 526 950 l 651 975 b 469 790 636 863 583 790 b 260 849 376 790 326 849 b 203 800 233 849 211 838 l 89 817 "},"¨":{"ha":751,"x_min":0,"x_max":0,"o":"m 521 771 b 419 867 465 771 419 814 b 521 964 419 921 465 964 b 621 867 575 964 621 922 b 521 771 621 814 575 771 m 231 771 b 131 867 175 771 131 814 b 231 964 131 921 175 964 b 331 867 286 964 331 922 b 231 771 331 814 286 771 "},"¯":{"ha":757,"x_min":0,"x_max":0,"o":"m 158 939 l 599 939 l 599 806 l 158 806 "},"˘":{"ha":751,"x_min":0,"x_max":0,"o":"m 375 776 b 154 968 246 776 168 867 l 297 968 b 375 913 307 935 332 913 b 454 968 419 913 443 935 l 597 968 b 375 776 583 867 504 776 "},"˚":{"ha":588,"x_min":0,"x_max":0,"o":"m 292 743 b 121 903 197 743 121 815 b 292 1064 121 990 197 1064 b 458 903 383 1064 458 990 b 292 743 458 815 383 743 m 292 850 b 343 903 321 850 343 874 b 292 956 343 932 321 956 b 238 903 263 956 238 932 b 292 850 238 874 263 850 "},"˝":{"ha":742,"x_min":0,"x_max":0,"o":"m 468 968 l 679 968 l 515 767 l 371 767 m 215 968 l 426 968 l 263 767 l 118 767 "},"˙":{"ha":715,"x_min":0,"x_max":0,"o":"m 358 771 b 256 869 303 771 256 815 b 358 968 256 924 303 968 b 461 869 415 968 461 924 b 358 771 461 815 415 771 "},"˛":{"ha":715,"x_min":0,"x_max":0,"o":"m 222 -151 b 326 0 222 -83 275 -32 l 453 0 b 357 -122 415 -25 357 -71 b 426 -171 357 -156 390 -171 b 507 -154 456 -171 481 -165 l 479 -283 b 400 -303 454 -296 426 -303 b 222 -151 310 -303 222 -246 "},"¸":{"ha":717,"x_min":0,"x_max":0,"o":"m 322 0 l 438 0 l 408 -64 b 500 -167 458 -64 500 -103 b 332 -303 500 -257 433 -303 b 201 -265 282 -303 229 -285 l 243 -179 b 308 -199 265 -193 281 -199 b 360 -156 338 -199 360 -182 b 278 -106 360 -115 329 -106 "},"?":{"ha":607,"x_min":0,"x_max":0,"o":"m 324 239 b 101 442 190 239 101 322 b 249 649 101 533 158 597 b 349 744 306 681 349 699 b 272 792 349 760 333 792 b 58 693 190 792 117 750 l 58 911 b 283 985 118 957 199 985 b 561 764 463 985 561 881 b 385 521 561 650 518 589 b 301 444 338 497 301 479 b 361 401 301 417 321 401 b 465 428 401 401 438 411 l 465 268 b 324 239 425 250 375 239 m 185 85 b 296 193 185 146 235 193 b 407 85 357 193 407 146 b 296 -22 407 25 357 -22 b 185 85 235 -22 185 25 "},"¿":{"ha":607,"x_min":0,"x_max":0,"o":"m 306 496 b 194 604 244 496 194 543 b 306 711 194 664 244 711 b 417 604 367 711 417 664 b 306 496 417 543 367 496 m 40 -75 b 217 168 40 39 83 100 b 300 244 264 192 300 210 b 240 288 300 272 281 288 b 136 261 200 288 164 278 l 136 421 b 278 450 176 439 226 450 b 500 247 411 450 500 367 b 353 40 500 156 443 92 b 253 -56 296 8 253 -10 b 329 -103 253 -71 268 -103 b 543 -4 411 -103 485 -61 l 543 -222 b 318 -296 483 -268 403 -296 b 40 -75 139 -296 40 -192 "},"&":{"ha":1151,"x_min":0,"x_max":0,"o":"m 47 310 b 240 611 47 446 114 549 b 215 711 225 640 215 678 b 528 990 215 872 339 990 b 803 763 692 990 803 890 b 778 682 803 733 794 703 l 1121 682 l 1121 494 l 946 494 l 946 436 b 868 190 946 339 915 254 l 1054 0 l 790 0 l 729 63 b 426 -21 650 3 550 -21 b 47 310 199 -21 47 114 m 717 328 b 751 465 746 361 751 414 l 751 494 l 565 494 l 565 622 b 635 721 604 631 635 669 b 525 825 635 781 588 825 b 414 706 474 825 414 788 b 488 564 414 654 443 610 m 256 310 b 426 167 256 221 321 167 b 565 207 483 167 532 176 b 343 440 353 429 389 383 b 256 310 286 413 256 368 "},"!":{"ha":401,"x_min":0,"x_max":0,"o":"m 76 968 l 324 968 l 290 264 l 110 264 m 88 97 b 200 210 88 160 139 210 b 314 97 263 210 314 160 b 200 -17 314 33 263 -17 b 88 97 139 -17 88 33 "},"¡":{"ha":401,"x_min":0,"x_max":0,"o":"m 200 488 b 88 600 139 488 88 538 b 200 713 88 663 139 713 b 314 600 263 713 314 663 b 200 488 314 538 263 488 m 110 432 l 290 432 l 324 -272 l 76 -272 "},"@":{"ha":1115,"x_min":0,"x_max":0,"o":"m 46 406 b 558 913 46 697 289 913 b 1071 428 846 913 1071 692 b 818 119 1071 229 974 119 b 649 229 732 119 668 163 b 525 176 625 196 578 176 b 313 406 401 176 313 279 b 525 635 313 531 401 635 b 635 585 574 635 614 619 l 635 626 l 788 626 l 788 317 b 832 257 788 271 813 257 b 914 428 872 257 914 293 b 558 763 914 613 754 763 b 206 406 364 763 206 603 b 560 50 206 210 365 50 b 708 86 611 50 663 63 l 771 -50 b 560 -100 704 -83 632 -100 b 46 406 260 -100 46 140 m 474 406 b 556 322 474 358 508 322 b 639 406 603 322 639 358 b 556 489 639 453 603 489 b 474 406 508 489 474 453 "},"ª":{"ha":649,"x_min":0,"x_max":0,"o":"m 60 589 b 289 761 60 688 128 744 b 386 807 351 768 386 772 b 321 846 386 836 357 846 b 179 779 261 846 214 821 l 83 863 b 319 976 139 936 222 976 b 547 797 463 976 547 910 l 547 593 b 561 561 547 576 551 565 b 588 556 567 556 585 556 l 588 450 b 525 436 567 439 550 436 b 451 456 483 436 465 446 b 425 492 436 467 431 479 b 251 432 390 449 321 432 b 60 589 138 432 60 493 m 222 608 b 279 569 222 585 240 569 b 385 649 342 569 385 594 l 385 676 b 292 657 369 667 338 663 b 222 608 249 651 222 639 "},"º":{"ha":650,"x_min":0,"x_max":0,"o":"m 324 436 b 38 710 165 436 38 560 b 324 982 38 857 165 982 b 613 710 482 982 613 857 b 324 436 613 560 482 436 m 324 608 b 426 710 379 608 426 656 b 324 810 426 761 379 810 b 221 710 268 810 221 761 b 324 608 221 656 268 608 "},"№":{"ha":1789,"x_min":0,"x_max":0,"o":"m 94 968 l 288 968 l 692 390 l 692 968 l 897 968 l 897 0 l 721 0 l 301 593 l 301 0 l 94 0 m 1051 650 b 1378 960 1051 829 1201 960 b 1704 650 1554 960 1704 829 b 1378 339 1704 471 1554 339 b 1051 650 1201 339 1051 471 m 1253 650 b 1378 524 1253 588 1304 524 b 1501 650 1451 524 1501 586 b 1378 775 1501 714 1451 775 b 1253 650 1304 775 1253 714 m 1064 250 l 1699 250 l 1699 65 l 1064 65 "},"™":{"ha":1258,"x_min":0,"x_max":0,"o":"m 589 968 l 701 968 l 900 744 l 1100 968 l 1210 968 l 1210 453 l 1032 453 l 1032 675 l 900 528 l 767 675 l 767 453 l 589 453 m 183 790 l 33 790 l 33 968 l 519 968 l 519 790 l 374 790 l 374 453 l 183 453 "},"©":{"ha":1124,"x_min":0,"x_max":0,"o":"m 47 483 b 561 994 47 750 264 994 b 1076 483 832 994 1076 776 b 561 -28 1076 214 856 -28 b 47 483 294 -28 47 186 m 189 483 b 561 113 189 279 356 113 b 933 483 767 113 933 279 b 561 853 933 688 767 853 b 189 483 356 853 189 688 m 286 485 b 571 757 286 642 413 757 b 788 656 646 757 718 733 l 679 550 b 571 596 651 576 621 596 b 458 485 510 596 458 549 b 571 372 458 419 510 372 b 679 419 621 372 651 390 l 788 314 b 571 211 718 236 646 211 b 286 485 413 211 286 326 "},"®":{"ha":575,"x_min":0,"x_max":0,"o":"m 288 504 b 38 747 150 504 38 613 b 288 989 38 882 149 989 b 539 747 425 989 539 882 b 288 504 539 611 422 504 m 288 588 b 451 747 379 588 451 656 b 288 907 451 839 379 907 b 124 747 196 907 124 839 b 288 588 124 656 196 588 m 203 860 l 300 860 b 376 785 343 860 376 826 b 343 722 376 757 365 735 l 394 642 l 318 642 l 279 707 l 268 707 l 268 642 l 203 642 m 293 757 b 315 781 307 757 315 767 b 296 803 315 793 307 803 l 267 803 l 267 757 "},"ℓ":{"ha":769,"x_min":0,"x_max":0,"o":"m -1 274 b 142 364 44 306 96 333 l 142 658 b 418 1001 142 932 275 1001 b 663 731 568 1001 663 885 b 349 279 663 554 551 414 l 349 269 b 464 160 350 175 411 160 b 621 244 531 160 583 203 l 735 124 b 417 -28 654 21 549 -28 b 151 185 257 -28 165 83 b 61 136 143 179 69 140 m 346 478 b 467 726 426 547 467 642 b 408 815 467 790 442 815 b 346 707 376 815 346 785 l 346 478 "},"℮":{"ha":1236,"x_min":0,"x_max":0,"o":"m 264 142 b 618 13 357 63 481 13 b 1021 189 781 13 926 82 l 1063 189 b 617 -17 961 65 799 -17 b 47 514 303 -17 47 221 b 617 1044 47 807 303 1044 b 1188 514 931 1044 1188 807 l 1188 499 l 264 499 l 264 142 m 969 528 l 969 888 b 618 1014 876 965 754 1014 b 264 885 481 1014 357 964 l 264 528 "},"$":{"ha":813,"x_min":0,"x_max":0,"o":"m 171 308 b 372 175 210 239 281 189 l 372 414 b 76 711 213 465 76 535 b 369 983 76 875 210 972 l 369 1121 l 474 1121 l 474 978 b 729 828 596 960 678 896 l 585 718 b 471 790 560 753 522 779 l 471 585 b 779 279 708 510 779 418 b 474 -12 779 124 682 4 l 474 -147 l 369 -147 l 369 -12 b 13 199 183 0 69 94 m 372 796 b 282 714 315 789 282 758 b 372 618 282 663 313 640 m 471 178 b 571 274 549 186 571 235 b 471 381 571 328 532 354 l 471 178 "},"¢":{"ha":744,"x_min":0,"x_max":0,"o":"m 294 140 b 39 489 146 189 39 321 b 425 860 39 721 232 860 l 435 860 l 456 968 l 568 968 l 544 842 b 715 733 604 824 663 790 l 590 610 b 510 663 567 635 540 651 l 438 303 b 449 301 439 303 443 301 b 590 369 497 306 546 324 l 715 244 b 425 119 622 147 517 119 b 403 121 419 119 406 119 l 379 0 l 265 0 m 403 676 b 401 676 403 676 401 676 b 235 489 306 665 235 589 b 333 322 235 415 274 353 "},"€":{"ha":1057,"x_min":0,"x_max":0,"o":"m 54 449 l 143 449 b 142 483 142 464 142 478 b 144 538 142 501 142 519 l 33 538 l 79 640 l 165 640 b 631 983 229 844 414 983 b 993 808 776 983 904 915 l 847 685 b 631 790 793 750 715 790 b 396 640 528 790 442 732 l 728 640 l 682 538 l 360 538 b 356 483 356 521 356 501 b 357 449 356 478 356 464 l 643 449 l 596 346 l 385 346 b 631 176 428 243 519 176 b 850 285 718 176 797 218 l 997 161 b 631 -15 907 53 778 -15 b 160 346 407 -15 217 129 l 7 346 "},"£":{"ha":831,"x_min":0,"x_max":0,"o":"m 42 150 l 54 150 b 282 311 239 150 282 239 b 256 393 282 335 269 364 l 99 393 l 99 536 l 178 536 b 125 700 149 589 125 643 b 442 989 125 860 265 989 b 746 690 611 989 746 856 l 564 690 b 443 794 564 746 511 794 b 328 681 381 794 328 743 b 390 536 328 640 358 583 l 618 536 l 618 393 l 467 393 b 489 311 479 367 489 339 b 426 175 489 240 458 196 l 792 175 l 792 0 l 42 0 "},"¥":{"ha":949,"x_min":0,"x_max":0,"o":"m 369 215 l 75 215 l 75 361 l 369 361 l 304 469 l 75 469 l 75 614 l 219 614 l 11 968 l 242 968 l 475 564 l 707 968 l 938 968 l 729 614 l 875 614 l 875 469 l 644 469 l 581 361 l 875 361 l 875 215 l 581 215 l 581 0 l 369 0 "},"ƒ":{"ha":633,"x_min":0,"x_max":0,"o":"m 144 464 l 46 464 l 82 629 l 181 629 b 193 689 182 633 193 685 b 536 990 235 874 315 990 b 642 979 571 990 604 989 l 601 794 b 521 801 578 800 546 801 b 399 693 444 801 414 758 b 385 629 399 689 386 633 l 521 629 l 485 464 l 350 464 l 218 -140 l 11 -140 "},"§":{"ha":772,"x_min":0,"x_max":0,"o":"m 276 -1 b 382 -117 282 -57 300 -117 b 482 -29 432 -117 482 -85 b 415 64 482 14 457 36 b 232 153 365 101 282 128 b 39 383 118 200 39 268 b 139 572 39 472 82 533 b 79 722 101 611 79 660 b 382 989 79 888 224 989 b 690 701 585 989 690 858 l 490 701 b 385 817 485 757 467 817 b 285 729 335 817 285 785 b 353 632 285 683 308 658 b 536 547 400 603 483 571 b 728 317 646 499 728 432 b 628 128 728 228 686 167 b 688 -22 665 89 688 39 b 385 -289 688 -189 542 -289 b 76 -1 183 -289 76 -160 m 425 243 b 465 225 425 243 454 232 b 526 314 518 246 526 286 b 340 457 526 386 432 422 b 301 474 340 457 313 467 b 240 386 250 453 240 414 b 425 243 240 314 333 279 "},"¶":{"ha":993,"x_min":0,"x_max":0,"o":"m 350 303 b 25 633 169 311 25 454 b 365 968 25 818 178 968 l 978 968 l 978 774 l 883 774 l 883 0 l 672 0 l 672 774 l 563 774 l 563 0 l 350 0 "},"∆":{"ha":911,"x_min":0,"x_max":0,"o":"m 46 128 l 372 968 l 538 968 l 864 128 l 864 0 l 46 0 m 635 194 l 456 667 l 276 194 "},"Ω":{"ha":1138,"x_min":0,"x_max":0,"o":"m 57 194 l 172 194 b 64 497 108 271 64 378 b 569 983 64 769 290 983 b 1074 497 847 983 1074 769 b 964 194 1074 378 1029 271 l 1082 194 l 1082 0 l 607 0 b 857 433 722 67 857 224 b 569 790 857 629 751 790 b 282 433 386 790 282 629 b 531 0 282 224 417 67 l 57 0 "},"μ":{"ha":799,"x_min":0,"x_max":0,"o":"m 263 -322 l 67 -322 l 67 700 l 263 700 l 263 306 b 404 158 263 214 321 158 b 539 303 489 158 539 211 l 539 700 l 736 700 l 736 282 b 458 -17 736 92 632 -17 b 263 76 376 -17 310 11 "},"π":{"ha":856,"x_min":0,"x_max":0,"o":"m 122 0 b 224 513 199 164 224 289 l 208 513 b 133 464 176 513 147 493 l -14 547 b 215 700 24 638 113 700 l 856 700 l 810 513 l 732 513 l 732 253 b 799 176 732 188 751 176 b 799 1 799 176 799 176 b 728 -6 782 -3 753 -6 b 525 206 640 -6 525 24 l 525 513 l 431 513 b 332 0 424 263 390 82 l 122 0 "},"∞":{"ha":1146,"x_min":0,"x_max":0,"o":"m 297 193 b 44 446 149 193 44 300 b 311 703 44 583 156 703 b 568 553 424 703 499 624 b 849 703 642 631 729 703 b 1101 446 994 703 1101 599 b 832 193 1101 313 988 193 b 582 338 725 193 654 265 b 297 193 507 264 417 193 m 683 442 b 813 365 721 404 765 365 b 906 446 867 365 906 401 b 815 531 906 496 868 531 b 683 442 765 531 721 483 m 332 365 b 467 453 381 365 429 414 b 335 531 426 493 381 531 b 239 446 279 531 239 493 b 332 365 239 400 276 365 "},"∂":{"ha":769,"x_min":0,"x_max":0,"o":"m 44 308 b 379 642 44 478 182 642 b 511 593 426 642 482 626 b 511 594 511 593 511 594 b 351 797 511 668 485 797 b 207 750 272 797 231 771 l 96 892 b 371 989 129 919 208 989 b 664 799 500 989 604 924 b 718 508 708 703 718 588 b 625 124 718 376 701 235 b 346 -21 563 29 454 -21 b 44 308 144 -21 44 138 m 253 297 b 363 175 253 236 288 175 b 478 249 411 175 453 203 b 500 336 493 275 500 306 b 383 454 500 403 454 454 b 253 297 321 454 253 399 "},"∏":{"ha":988,"x_min":0,"x_max":0,"o":"m 176 776 l 31 776 l 31 968 l 956 968 l 956 776 l 811 776 l 811 0 l 601 0 l 601 776 l 386 776 l 386 0 l 176 0 "},"◊":{"ha":779,"x_min":0,"x_max":0,"o":"m 17 485 l 318 968 l 461 968 l 763 485 l 458 0 l 321 0 m 549 483 l 390 738 l 231 483 l 390 224 "},"∑":{"ha":804,"x_min":0,"x_max":0,"o":"m 51 146 l 332 504 l 58 828 l 58 968 l 738 968 l 738 767 l 339 767 l 561 497 l 321 194 l 753 194 l 753 0 l 51 0 "},"√":{"ha":949,"x_min":0,"x_max":0,"o":"m 19 500 l 311 619 l 469 222 l 744 1111 l 936 1111 l 540 -121 l 419 -121 l 206 414 l 79 360 "},"∫":{"ha":461,"x_min":0,"x_max":0,"o":"m 21 42 b 83 33 38 36 57 33 b 160 236 156 33 160 113 b 129 778 160 364 129 601 b 364 1096 129 1018 222 1096 b 442 1086 390 1096 421 1092 l 442 917 b 393 922 429 921 415 922 b 324 744 329 922 324 844 b 356 171 324 589 356 301 b 114 -142 356 -67 263 -142 b 21 -129 83 -142 47 -136 l 21 42 "},"←":{"ha":957,"x_min":0,"x_max":0,"o":"m 29 357 l 392 721 l 526 588 l 390 454 l 911 454 l 911 260 l 390 260 l 526 126 l 392 -7 "},"↑":{"ha":1040,"x_min":0,"x_max":0,"o":"m 415 479 l 275 335 l 146 465 l 514 832 l 882 465 l 751 335 l 611 479 l 611 0 l 415 0 "},"→":{"ha":957,"x_min":0,"x_max":0,"o":"m 46 454 l 565 454 l 429 588 l 564 721 l 926 357 l 564 -7 l 429 126 l 567 260 l 46 260 "},"↓":{"ha":1040,"x_min":0,"x_max":0,"o":"m 275 372 l 415 229 l 415 700 l 611 700 l 611 229 l 751 372 l 882 242 l 514 -125 l 146 242 "},"↔":{"ha":1332,"x_min":0,"x_max":0,"o":"m 29 357 l 392 721 l 526 588 l 390 454 l 942 454 l 806 588 l 940 721 l 1303 357 l 940 -7 l 806 126 l 943 260 l 390 260 l 526 126 l 392 -7 "},"↕":{"ha":1040,"x_min":0,"x_max":0,"o":"m 290 285 l 415 158 l 415 565 l 290 439 l 160 569 l 514 917 l 868 569 l 738 439 l 611 565 l 611 158 l 738 285 l 868 154 l 514 -192 l 160 154 "},"↖":{"ha":1040,"x_min":0,"x_max":0,"o":"m 217 682 l 746 682 l 746 496 l 542 496 l 899 139 l 761 1 l 408 354 l 408 147 l 217 147 "},"↗":{"ha":1040,"x_min":0,"x_max":0,"o":"m 500 496 l 294 496 l 294 682 l 825 682 l 825 147 l 632 147 l 632 354 l 281 1 l 143 139 "},"↘":{"ha":1040,"x_min":0,"x_max":0,"o":"m 350 208 l 554 208 l 197 565 l 335 703 l 688 350 l 688 557 l 879 557 l 879 21 l 350 21 "},"↙":{"ha":1040,"x_min":0,"x_max":0,"o":"m 217 557 l 408 557 l 408 350 l 761 703 l 899 565 l 542 208 l 746 208 l 746 21 l 217 21 "},"▲":{"ha":800,"x_min":0,"x_max":0,"o":"m 390 681 l 708 153 l 90 153 "},"►":{"ha":800,"x_min":0,"x_max":0,"o":"m 164 669 l 692 371 l 164 51 "},"▼":{"ha":800,"x_min":0,"x_max":0,"o":"m 90 589 l 708 589 l 390 61 "},"◄":{"ha":800,"x_min":0,"x_max":0,"o":"m 636 669 l 636 51 l 108 371 "},"◢":{"ha":800,"x_min":0,"x_max":0,"o":"m 515 678 l 676 93 l 78 240 "},"◣":{"ha":800,"x_min":0,"x_max":0,"o":"m 285 678 l 721 240 l 122 93 "},"◤":{"ha":800,"x_min":0,"x_max":0,"o":"m 124 647 l 713 489 l 275 53 "},"◥":{"ha":800,"x_min":0,"x_max":0,"o":"m 674 647 l 526 49 l 89 486 "}}}
